<svg width="41" height="53" viewBox="0 0 41 53" fill="none" xmlns="http://www.w3.org/2000/svg">
<path d="M11.9114 29.863C13.6984 35.8005 14.1348 42.0741 13.8577 48.2442C13.821 48.996 14.8467 48.5198 14.8706 47.9719C15.1541 41.7222 14.7289 35.3482 12.918 29.3326C12.7189 28.6732 11.7585 29.3501 11.9114 29.863ZM28.1728 35.2208C28.614 36.7991 28.3018 38.4237 28.3958 40.0355C28.52 42.1904 29.8403 43.8452 31.4521 45.1624C31.5509 44.8486 31.656 44.5364 31.7595 44.2243C30.2847 44.8645 27.9164 45.9253 28.0422 47.8986C28.1521 49.598 29.4485 50.8148 29.1443 52.6257C29.0185 53.3568 30.0665 52.8821 30.1573 52.355C30.3898 51.0028 29.9438 49.8433 29.4055 48.6281C29.1873 48.1343 28.9532 47.5896 29.1172 47.0497C29.4135 46.0829 31.1208 45.5207 31.9252 45.1687C32.2134 45.0429 32.5511 44.4887 32.231 44.2306C30.5761 42.8737 29.4453 41.3112 29.3816 39.1229C29.3386 37.6242 29.5919 36.1637 29.1762 34.692C28.993 34.0294 28.031 34.7063 28.1728 35.2208ZM28.5439 5.47408C22.0696 5.47408 16.8153 12.1491 16.8153 20.3849C16.8153 28.6175 25.5639 35.8913 28.5439 35.8913C31.5286 35.8913 40.274 28.6191 40.274 20.3849C40.274 12.1491 35.0229 5.47408 28.5439 5.47408ZM31.6353 9.99892L33.7982 9.02419C40.4222 16.005 35.4498 21.3628 35.4498 21.3628C37.7241 14.8678 31.6353 9.99892 31.6353 9.99892ZM13.6474 29.597H12.0627C12.0627 29.597 11.7935 31.0909 11.0896 31.5449C10.3872 32.0004 13.0979 30.4857 14.2049 31.5034C14.0122 31.3346 13.3321 30.6482 13.6474 29.597ZM14.2049 31.5034C14.2367 31.5321 14.2558 31.5449 14.2558 31.5449C14.2383 31.5305 14.2192 31.5194 14.2049 31.5034ZM30.0044 34.8736H28.4212C28.4212 34.8736 28.1505 36.3659 27.4497 36.8214C26.7441 37.2769 29.4565 35.7623 30.5618 36.7816C30.3691 36.608 29.6906 35.9232 30.0044 34.8736ZM30.5602 36.78C30.5937 36.8055 30.6128 36.8198 30.6128 36.8198C30.5969 36.8055 30.5793 36.7944 30.5602 36.78ZM22.0728 6.38032C19.9513 2.52442 16.4378 0 12.4545 0C5.97703 0 0.725922 6.67497 0.725922 14.9092C0.725922 23.1434 9.47298 30.4156 12.4545 30.4156C13.6172 30.4156 15.659 29.3055 17.7168 27.4644C16.3327 25.182 15.3723 22.57 15.3723 19.8513C15.3723 13.9058 18.1117 8.77414 22.0728 6.38032ZM7.72421 7.67677C7.6159 7.78986 7.50919 7.90453 7.40248 8.02239C7.19225 8.25811 6.98679 8.50338 6.7893 8.75343C6.39112 9.25513 6.0264 9.78231 5.69193 10.3302C5.0246 11.426 4.49901 12.6125 4.21232 13.8644C3.92564 15.1131 3.90175 16.4318 4.20914 17.7123C4.51016 18.9928 5.14564 20.2129 5.9834 21.2879C4.99434 20.3514 4.15339 19.2142 3.62303 17.9019C3.08629 16.5927 2.88402 15.1274 2.99232 13.6876C3.09585 12.2446 3.48446 10.8303 4.03872 9.50041C4.31585 8.83307 4.63598 8.18484 4.99433 7.55573C5.17431 7.24038 5.36225 6.93139 5.56133 6.6256C5.66327 6.47111 5.76361 6.32139 5.87032 6.16849C5.9818 6.014 6.08214 5.87225 6.21911 5.70184L8.03797 7.36779C7.94559 7.44902 7.82614 7.56688 7.72421 7.67677Z" fill="#FEA832"/>
</svg>
