<svg width="125" height="63" viewBox="0 0 125 63" fill="none" xmlns="http://www.w3.org/2000/svg">
<g clip-path="url(#clip0)">
<path d="M26.3138 11.2327L22.5176 6.04653L28.9072 6.7415L31.5 0.860352L34.0928 6.7415L40.4824 6.04653L36.6862 11.2327L40.4824 16.4189L34.0928 15.7239L31.5 21.6046L28.9072 15.7239L22.5176 16.4189L26.3138 11.2327Z" fill="#FEDB41"/>
<path d="M47.2756 30.5388L41.3944 27.9459L47.2756 25.3531L46.5806 18.9635L51.7668 22.7597L56.9525 18.9635L56.258 25.3531L62.1387 27.9459L56.258 30.5388L56.9525 36.9283L51.7668 33.1321L46.5806 36.9283L47.2756 30.5388Z" fill="#FEA832"/>
<path d="M15.7244 30.5388L21.6051 27.9459L15.7244 25.3531L16.4194 18.9635L11.2332 22.7597L6.04751 18.9635L6.74198 25.3531L0.861328 27.9459L6.74198 30.5388L6.04751 36.9283L11.2332 33.1321L16.4194 36.9283L15.7244 30.5388Z" fill="#FEA832"/>
<path d="M31.5 63C31.3869 63.0001 31.2748 62.9778 31.1703 62.9346C31.0658 62.8913 30.9708 62.8279 30.8908 62.7479C30.8108 62.6679 30.7474 62.5729 30.7041 62.4684C30.6608 62.3638 30.6386 62.2518 30.6387 62.1387V50.9119C30.6387 50.6834 30.7294 50.4644 30.8909 50.3028C31.0525 50.1413 31.2716 50.0506 31.5 50.0506C31.7284 50.0506 31.9475 50.1413 32.109 50.3028C32.2706 50.4644 32.3613 50.6834 32.3613 50.9119V62.1387C32.3614 62.2518 32.3392 62.3638 32.2959 62.4684C32.2526 62.5729 32.1892 62.6679 32.1092 62.7479C32.0292 62.8279 31.9342 62.8913 31.8297 62.9346C31.7252 62.9778 31.6131 63.0001 31.5 63V63Z" fill="#32D736"/>
<path d="M31.5 46.6968C31.3869 46.6968 31.2748 46.6746 31.1703 46.6314C31.0658 46.5881 30.9708 46.5246 30.8908 46.4447C30.8108 46.3647 30.7474 46.2697 30.7041 46.1651C30.6608 46.0606 30.6386 45.9486 30.6387 45.8355V42.3281C30.6387 42.0997 30.7294 41.8806 30.8909 41.7191C31.0525 41.5575 31.2716 41.4668 31.5 41.4668C31.7284 41.4668 31.9475 41.5575 32.109 41.7191C32.2706 41.8806 32.3613 42.0997 32.3613 42.3281V45.835C32.3615 45.9481 32.3393 46.0602 32.296 46.1648C32.2528 46.2694 32.1894 46.3644 32.1094 46.4445C32.0294 46.5245 31.9344 46.588 31.8298 46.6313C31.7252 46.6746 31.6132 46.6968 31.5 46.6968Z" fill="#32D736"/>
<path d="M31.5 38.1145C31.2716 38.1145 31.0525 38.0238 30.8909 37.8622C30.7294 37.7007 30.6387 37.4816 30.6387 37.2532V26.0682C30.6387 25.8398 30.7294 25.6207 30.8909 25.4592C31.0525 25.2976 31.2716 25.2069 31.5 25.2069C31.7284 25.2069 31.9475 25.2976 32.109 25.4592C32.2706 25.6207 32.3613 25.8398 32.3613 26.0682V37.2532C32.3613 37.4816 32.2706 37.7007 32.109 37.8622C31.9475 38.0238 31.7284 38.1145 31.5 38.1145Z" fill="#32D736"/>
<path d="M38.7558 63C38.6427 63.0001 38.5307 62.9778 38.4261 62.9346C38.3216 62.8913 38.2266 62.8279 38.1466 62.7479C38.0666 62.6679 38.0032 62.5729 37.9599 62.4684C37.9167 62.3638 37.8944 62.2518 37.8945 62.1387V61.11C37.8947 58.1962 38.2082 55.2908 38.8297 52.4441C38.8538 52.3335 38.8995 52.2289 38.9642 52.136C39.0288 52.0431 39.1111 51.9639 39.2063 51.9028C39.3016 51.8418 39.4079 51.8001 39.5193 51.7801C39.6306 51.7602 39.7448 51.7623 39.8554 51.7865C39.9659 51.8107 40.0706 51.8564 40.1634 51.921C40.2563 51.9856 40.3355 52.0679 40.3966 52.1632C40.4576 52.2584 40.4993 52.3648 40.5193 52.4761C40.5393 52.5875 40.5371 52.7017 40.5129 52.8122C39.9167 55.5379 39.6157 58.3199 39.6152 61.11V62.1387C39.6153 62.3668 39.5249 62.5857 39.3637 62.7472C39.2026 62.9087 38.984 62.9996 38.7558 63V63Z" fill="#10BB67"/>
<path d="M41.1823 48.3112C41.0434 48.3114 40.9065 48.278 40.7833 48.2138C40.6602 48.1497 40.5543 48.0567 40.4749 47.9427C40.3954 47.8288 40.3447 47.6973 40.3271 47.5596C40.3095 47.4218 40.3254 47.2818 40.3736 47.1516C41.1759 44.9679 42.1639 42.8571 43.3268 40.8422C43.441 40.6443 43.6291 40.4999 43.8498 40.4407C44.0705 40.3816 44.3057 40.4125 44.5036 40.5267C44.7015 40.6409 44.8459 40.8291 44.9051 41.0498C44.9642 41.2705 44.9333 41.5056 44.8191 41.7035C43.706 43.6328 42.7603 45.6539 41.9924 47.7447C41.9321 47.911 41.8219 48.0546 41.6769 48.156C41.5319 48.2574 41.3592 48.3115 41.1823 48.3112V48.3112Z" fill="#10BB67"/>
<path d="M24.2441 63C24.131 63.0001 24.019 62.9778 23.9145 62.9346C23.8099 62.8913 23.715 62.8279 23.635 62.7479C23.555 62.6679 23.4915 62.5729 23.4483 62.4684C23.405 62.3638 23.3828 62.2518 23.3828 62.1387V61.11C23.3821 58.3197 23.0811 55.5376 22.4851 52.8117C22.4598 52.7008 22.4567 52.586 22.4761 52.4739C22.4954 52.3618 22.5367 52.2547 22.5977 52.1586C22.6587 52.0626 22.738 51.9796 22.8312 51.9144C22.9245 51.8492 23.0297 51.8032 23.1408 51.7789C23.2519 51.7545 23.3667 51.7525 23.4786 51.7728C23.5906 51.7931 23.6973 51.8354 23.7928 51.8972C23.8883 51.959 23.9706 52.0391 24.035 52.1329C24.0994 52.2266 24.1445 52.3322 24.1679 52.4436C24.7904 55.2902 25.1047 58.1956 25.1055 61.1095V62.1382C25.1056 62.2514 25.0834 62.3634 25.0402 62.468C24.997 62.5726 24.9335 62.6676 24.8535 62.7477C24.7735 62.8277 24.6785 62.8912 24.574 62.9345C24.4694 62.9778 24.3573 63.0001 24.2441 63V63Z" fill="#10BB67"/>
<path d="M21.8177 48.3119C21.6413 48.312 21.4691 48.2579 21.3245 48.1569C21.1799 48.0559 21.0697 47.913 21.009 47.7473C20.2415 45.6565 19.296 43.6354 18.1829 41.7062C18.0687 41.5083 18.0377 41.2732 18.0969 41.0525C18.1561 40.8318 18.3005 40.6436 18.4984 40.5294C18.6963 40.4152 18.9314 40.3843 19.1521 40.4434C19.3728 40.5026 19.561 40.647 19.6752 40.8449C20.8381 42.8597 21.8261 44.9706 22.6283 47.1543C22.6761 47.2844 22.6918 47.4242 22.674 47.5617C22.6561 47.6992 22.6054 47.8303 22.526 47.944C22.4466 48.0577 22.3409 48.1505 22.2179 48.2145C22.0949 48.2786 21.9583 48.312 21.8196 48.3119H21.8177Z" fill="#10BB67"/>
<path d="M9.08134 44.8865L11.0388 48.8531L15.4163 49.489L12.2491 52.5765L12.9967 56.9363L9.08134 54.8779L5.16599 56.9363L5.91412 52.5765L2.7464 49.489L7.12391 48.8531L9.08134 44.8865Z" fill="#FEDB41"/>
<path d="M53.9187 44.8865L51.9612 48.8531L47.5837 49.489L50.7509 52.5765L50.0033 56.9363L53.9187 54.8779L57.834 56.9363L57.0859 52.5765L60.2536 49.489L55.8761 48.8531L53.9187 44.8865Z" fill="#FEDB41"/>
<path d="M41.2286 16.8491C41.3122 16.7045 41.3521 16.5388 41.3433 16.372C41.3346 16.2052 41.2776 16.0445 41.1794 15.9095L37.7557 11.2337L41.1794 6.55791C41.2776 6.42297 41.3346 6.26238 41.3433 6.09567C41.3521 5.92896 41.3122 5.7633 41.2286 5.61882C41.146 5.4732 41.0222 5.35518 40.8729 5.27954C40.7235 5.2039 40.5552 5.17399 40.3889 5.19357L34.6264 5.81717L32.2875 0.513357C32.2198 0.361042 32.1094 0.231634 31.9696 0.140811C31.8298 0.0499878 31.6667 0.00164795 31.5 0.00164795C31.3333 0.00164795 31.1702 0.0499878 31.0304 0.140811C30.8907 0.231634 30.7802 0.361042 30.7125 0.513357L28.3731 5.81717L22.6106 5.19061C22.4448 5.17152 22.277 5.20166 22.1282 5.27728C21.9794 5.35291 21.8562 5.47066 21.7739 5.61586C21.6903 5.76035 21.6504 5.92601 21.6591 6.09272C21.6679 6.25943 21.7248 6.42001 21.8231 6.55496L25.2468 11.2307L21.8231 15.9065C21.7245 16.0413 21.6671 16.2019 21.6581 16.3686C21.649 16.5354 21.6886 16.7012 21.772 16.8459C21.8554 16.9906 21.9791 17.108 22.128 17.1837C22.2769 17.2594 22.4445 17.2902 22.6106 17.2723L28.3731 16.6453L30.7125 21.9516C30.7802 22.1039 30.8907 22.2333 31.0304 22.3241C31.1702 22.4149 31.3333 22.4633 31.5 22.4633C31.6667 22.4633 31.8298 22.4149 31.9696 22.3241C32.1094 22.2333 32.2198 22.1039 32.2875 21.9516L34.6254 16.6473L40.3889 17.2758C40.5552 17.2936 40.723 17.2628 40.8721 17.187C41.0211 17.1113 41.145 16.9939 41.2286 16.8491V16.8491ZM34.1864 14.8675C34.0045 14.848 33.8211 14.8868 33.6626 14.9782C33.5042 15.0697 33.3789 15.2091 33.3049 15.3764L31.5 19.47L29.6952 15.3764C29.6277 15.2238 29.5174 15.0939 29.3776 15.0027C29.2378 14.9115 29.0746 14.8628 28.9077 14.8626C28.8764 14.8625 28.8452 14.8642 28.8141 14.8675L24.3667 15.3513L27.0093 11.7416C27.1172 11.594 27.1754 11.4158 27.1754 11.233C27.1754 11.0501 27.1172 10.8719 27.0093 10.7243L24.3667 7.11408L28.8141 7.59741C28.9962 7.61753 29.1799 7.57889 29.3384 7.48715C29.4969 7.3954 29.6219 7.25537 29.6952 7.08751L31.5 2.99595L33.3049 7.08751C33.3782 7.25533 33.5033 7.39524 33.662 7.48674C33.8206 7.57824 34.0044 7.61651 34.1864 7.59594L38.6338 7.11261L35.9912 10.7228C35.8833 10.8704 35.8251 11.0486 35.8251 11.2315C35.8251 11.4144 35.8833 11.5925 35.9912 11.7402L38.6338 15.3499L34.1864 14.8675Z" fill="black"/>
<path d="M62.4862 27.1579L57.1823 24.8195L57.8089 19.057C57.8266 18.891 57.7958 18.7235 57.7201 18.5747C57.6444 18.4259 57.5272 18.3023 57.3825 18.2189C57.2379 18.1355 57.0722 18.0959 56.9055 18.1048C56.7388 18.1138 56.5784 18.171 56.4436 18.2695L51.7678 21.6932L47.092 18.2695C46.9573 18.171 46.7968 18.1137 46.6301 18.1047C46.4634 18.0957 46.2977 18.1353 46.1531 18.2187C46.0085 18.3021 45.8912 18.4258 45.8156 18.5746C45.74 18.7234 45.7093 18.891 45.7272 19.057L46.4192 25.4461C46.4298 25.5598 46.4629 25.6703 46.5167 25.7711C46.5704 25.8719 46.6436 25.9611 46.7321 26.0333C46.8206 26.1055 46.9226 26.1594 47.0321 26.1919C47.1416 26.2243 47.2565 26.2347 47.3701 26.2223C47.4836 26.2099 47.5936 26.1751 47.6935 26.1198C47.7935 26.0646 47.8815 25.99 47.9524 25.9004C48.0232 25.8108 48.0755 25.708 48.1063 25.598C48.1371 25.4879 48.1456 25.3729 48.1315 25.2596L47.6482 20.8122L51.2584 23.4547C51.4059 23.5629 51.5841 23.6212 51.767 23.6212C51.95 23.6212 52.1282 23.5629 52.2757 23.4547L55.8849 20.8122L55.4011 25.2596C55.3813 25.4416 55.42 25.6251 55.5116 25.7836C55.6032 25.9421 55.743 26.0673 55.9105 26.1411L60.0036 27.9459L55.9125 29.7503C55.745 29.8241 55.6053 29.9493 55.5137 30.1078C55.4221 30.2663 55.3834 30.4498 55.4031 30.6318L55.8869 35.0792L52.2757 32.4352C52.1281 32.327 51.9498 32.2687 51.7668 32.2687C51.5838 32.2687 51.4055 32.327 51.2579 32.4352L47.6482 35.0777L48.1315 30.6303C48.1514 30.4484 48.1128 30.2649 48.0214 30.1064C47.93 29.948 47.7905 29.8227 47.6231 29.7488L41.7424 27.1579C41.6383 27.1078 41.5253 27.0791 41.4099 27.0736C41.2945 27.068 41.1792 27.0858 41.0708 27.1257C40.9624 27.1656 40.8632 27.227 40.779 27.306C40.6948 27.3851 40.6273 27.4803 40.5807 27.586C40.534 27.6917 40.5091 27.8056 40.5074 27.9211C40.5056 28.0366 40.5272 28.1513 40.5707 28.2583C40.6142 28.3653 40.6788 28.4625 40.7606 28.544C40.8424 28.6255 40.9398 28.6898 41.047 28.7329L46.3513 31.0708L45.7242 36.8353C45.7062 37.0014 45.7369 37.1691 45.8126 37.318C45.8882 37.4669 46.0055 37.5906 46.1502 37.6741C46.2949 37.7575 46.4607 37.7971 46.6275 37.788C46.7943 37.7789 46.9548 37.7215 47.0895 37.6228L51.7653 34.1987L56.4411 37.6228C56.5758 37.7215 56.7364 37.7789 56.9032 37.788C57.0699 37.7971 57.2358 37.7575 57.3805 37.6741C57.5251 37.5906 57.6424 37.4669 57.7181 37.318C57.7937 37.1691 57.8244 37.0014 57.8064 36.8353L57.1823 31.0728L62.4862 28.7344C62.6386 28.6668 62.7682 28.5565 62.8592 28.4167C62.9502 28.2769 62.9986 28.1137 62.9986 27.9469C62.9986 27.7801 62.9502 27.6169 62.8592 27.4771C62.7682 27.3373 62.6386 27.227 62.4862 27.1594V27.1579Z" fill="black"/>
<path d="M21.9516 28.7344C22.104 28.6668 22.2336 28.5565 22.3246 28.4167C22.4156 28.2769 22.464 28.1137 22.464 27.9469C22.464 27.7801 22.4156 27.6169 22.3246 27.4771C22.2336 27.3373 22.104 27.227 21.9516 27.1594L16.6487 24.8195L17.2758 19.057C17.2937 18.891 17.2629 18.7234 17.1873 18.5746C17.1117 18.4258 16.9945 18.3021 16.8499 18.2187C16.7053 18.1353 16.5395 18.0957 16.3729 18.1047C16.2062 18.1137 16.0457 18.171 15.9109 18.2695L11.2352 21.6932L6.55937 18.2695C6.42458 18.171 6.26409 18.1138 6.0974 18.1048C5.93071 18.0959 5.76499 18.1355 5.62039 18.2189C5.47579 18.3023 5.35852 18.4259 5.28283 18.5747C5.20715 18.7235 5.1763 18.891 5.19404 19.057L5.81765 24.8195L0.513834 27.1579C0.361347 27.2255 0.231753 27.3359 0.140789 27.4757C0.0498255 27.6155 0.00140381 27.7786 0.00140381 27.9454C0.00140381 28.1122 0.0498255 28.2754 0.140789 28.4152C0.231753 28.555 0.361347 28.6654 0.513834 28.7329L5.81765 31.0728L5.19109 36.8353C5.17312 37.0014 5.20382 37.1691 5.27946 37.318C5.35509 37.4669 5.47239 37.5906 5.61707 37.6741C5.76176 37.7575 5.92759 37.7971 6.09436 37.788C6.26114 37.7789 6.42168 37.7215 6.55642 37.6228L11.2322 34.1987L15.908 37.6228C16.0427 37.7215 16.2033 37.7789 16.37 37.788C16.5368 37.7971 16.7026 37.7575 16.8473 37.6741C16.992 37.5906 17.1093 37.4669 17.1849 37.318C17.2606 37.1691 17.2913 37.0014 17.2733 36.8353L16.6487 31.0723L21.9516 28.7344ZM15.3759 29.7503C15.2085 29.8242 15.069 29.9494 14.9776 30.1079C14.8862 30.2664 14.8476 30.4499 14.8675 30.6318L15.3508 35.0792L11.7421 32.4352C11.5944 32.3271 11.4162 32.2688 11.2332 32.2688C11.0502 32.2688 10.8719 32.3271 10.7243 32.4352L7.11505 35.0777L7.59838 30.6303C7.61757 30.4484 7.57842 30.2651 7.48658 30.1069C7.39474 29.9487 7.25498 29.8238 7.08749 29.7503L2.99643 27.9459L7.08749 26.1411C7.25497 26.0673 7.39458 25.942 7.48609 25.7835C7.5776 25.625 7.61624 25.4415 7.59641 25.2596L7.11308 20.8122L10.7223 23.4547C10.8698 23.5629 11.048 23.6212 11.231 23.6212C11.4139 23.6212 11.5921 23.5629 11.7396 23.4547L15.3498 20.8122L14.8665 25.2596C14.8465 25.4415 14.885 25.625 14.9764 25.7835C15.0679 25.9421 15.2075 26.0673 15.3749 26.1411L19.4685 27.9459L15.3759 29.7503Z" fill="black"/>
<path d="M31.5 50.0501C31.3869 50.05 31.2748 50.0722 31.1703 50.1155C31.0658 50.1588 30.9708 50.2222 30.8908 50.3022C30.8108 50.3822 30.7474 50.4772 30.7041 50.5817C30.6608 50.6862 30.6386 50.7983 30.6387 50.9114V62.1382C30.6387 62.3666 30.7294 62.5857 30.8909 62.7472C31.0525 62.9088 31.2716 62.9995 31.5 62.9995C31.7284 62.9995 31.9475 62.9088 32.109 62.7472C32.2706 62.5857 32.3613 62.3666 32.3613 62.1382V50.9114C32.3614 50.7983 32.3392 50.6862 32.2959 50.5817C32.2526 50.4772 32.1892 50.3822 32.1092 50.3022C32.0292 50.2222 31.9342 50.1588 31.8297 50.1155C31.7252 50.0722 31.6131 50.05 31.5 50.0501Z" fill="black"/>
<path d="M31.5 41.4673C31.3869 41.4672 31.2749 41.4895 31.1704 41.5327C31.0659 41.5759 30.971 41.6393 30.891 41.7193C30.811 41.7992 30.7475 41.8941 30.7042 41.9986C30.661 42.1031 30.6387 42.215 30.6387 42.3281V45.835C30.6387 46.0634 30.7294 46.2825 30.8909 46.444C31.0525 46.6055 31.2716 46.6963 31.5 46.6963C31.7284 46.6963 31.9475 46.6055 32.109 46.444C32.2706 46.2825 32.3613 46.0634 32.3613 45.835V42.3281C32.3613 42.215 32.339 42.1031 32.2958 41.9986C32.2525 41.8941 32.189 41.7992 32.109 41.7193C32.029 41.6393 31.9341 41.5759 31.8296 41.5327C31.7251 41.4895 31.6131 41.4672 31.5 41.4673V41.4673Z" fill="black"/>
<path d="M31.5 25.2069C31.3869 25.2068 31.2748 25.2291 31.1703 25.2723C31.0658 25.3156 30.9708 25.379 30.8908 25.459C30.8108 25.539 30.7474 25.634 30.7041 25.7385C30.6608 25.8431 30.6386 25.9551 30.6387 26.0682V37.2532C30.6387 37.4816 30.7294 37.7007 30.8909 37.8622C31.0525 38.0238 31.2716 38.1145 31.5 38.1145C31.7284 38.1145 31.9475 38.0238 32.109 37.8622C32.2706 37.7007 32.3613 37.4816 32.3613 37.2532V26.0682C32.3614 25.9551 32.3392 25.8431 32.2959 25.7385C32.2526 25.634 32.1892 25.539 32.1092 25.459C32.0292 25.379 31.9342 25.3156 31.8297 25.2723C31.7252 25.2291 31.6131 25.2068 31.5 25.2069Z" fill="black"/>
<path d="M39.8574 51.787C39.6342 51.7388 39.401 51.7809 39.2088 51.9041C39.0166 52.0273 38.881 52.2216 38.8316 52.4446C38.2102 55.2913 37.8967 58.1967 37.8965 61.1105V62.1392C37.8965 62.3676 37.9872 62.5867 38.1488 62.7482C38.3103 62.9098 38.5294 63.0005 38.7578 63.0005C38.9863 63.0005 39.2053 62.9098 39.3669 62.7482C39.5284 62.5867 39.6191 62.3676 39.6191 62.1392V61.1105C39.619 58.3201 39.9193 55.5378 40.5149 52.8117C40.5635 52.5886 40.5215 52.3554 40.3982 52.1633C40.2749 51.9711 40.0804 51.8358 39.8574 51.787V51.787Z" fill="black"/>
<path d="M44.5016 40.5292C44.4037 40.4726 44.2955 40.4358 44.1834 40.421C44.0712 40.4062 43.9572 40.4137 43.848 40.4429C43.7387 40.4722 43.6362 40.5227 43.5465 40.5915C43.4567 40.6604 43.3814 40.7462 43.3248 40.8442C42.1619 42.859 41.1739 44.9699 40.3717 47.1535C40.3036 47.3654 40.3201 47.5955 40.4179 47.7955C40.5157 47.9955 40.6871 48.1498 40.8961 48.2262C41.1052 48.3026 41.3358 48.2951 41.5394 48.2052C41.7431 48.1153 41.904 47.9501 41.9885 47.7442C42.7564 45.6534 43.702 43.6323 44.8151 41.703C44.9287 41.5057 44.9594 41.2714 44.9006 41.0514C44.8419 40.8314 44.6984 40.6437 44.5016 40.5292V40.5292Z" fill="black"/>
<path d="M23.1422 51.787C23.0317 51.8112 22.927 51.8569 22.8342 51.9216C22.7414 51.9862 22.6622 52.0685 22.6012 52.1638C22.5402 52.259 22.4985 52.3653 22.4786 52.4767C22.4587 52.588 22.4609 52.7022 22.4851 52.8127C23.0811 55.5384 23.3821 58.3204 23.3829 61.1105V62.1392C23.3829 62.3676 23.4736 62.5867 23.6351 62.7482C23.7967 62.9098 24.0157 63.0005 24.2442 63.0005C24.4726 63.0005 24.6917 62.9098 24.8532 62.7482C25.0148 62.5867 25.1055 62.3676 25.1055 62.1392V61.1105C25.1043 58.1965 24.7894 55.2912 24.1664 52.4446C24.1176 52.2216 23.9824 52.0272 23.7903 51.9039C23.5983 51.7806 23.3652 51.7386 23.1422 51.787V51.787Z" fill="black"/>
<path d="M22.6264 47.1516C21.8241 44.9679 20.8361 42.8571 19.6732 40.8422C19.559 40.6443 19.3709 40.4999 19.1502 40.4407C18.9295 40.3816 18.6943 40.4125 18.4964 40.5267C18.2985 40.6409 18.1541 40.8291 18.0949 41.0498C18.0358 41.2705 18.0667 41.5056 18.1809 41.7035C19.2941 43.6327 20.2396 45.6538 21.0071 47.7446C21.0904 47.9523 21.2513 48.1193 21.4556 48.2105C21.6599 48.3016 21.8917 48.3096 22.1019 48.2329C22.312 48.1561 22.4841 48.0006 22.5816 47.7993C22.6791 47.5979 22.6945 47.3665 22.6244 47.154L22.6264 47.1516Z" fill="black"/>
<path d="M15.5403 48.6365L11.1633 48.0006C11.05 47.9813 10.934 47.9849 10.8221 48.0112C10.7102 48.0375 10.6047 48.0859 10.5118 48.1535C10.419 48.2212 10.3405 48.3067 10.2812 48.4052C10.2219 48.5036 10.1829 48.6129 10.1665 48.7267C10.1501 48.8404 10.1566 48.9563 10.1856 49.0675C10.2147 49.1786 10.2657 49.2829 10.3356 49.3741C10.4056 49.4652 10.4931 49.5415 10.593 49.5983C10.6928 49.6552 10.8031 49.6915 10.9172 49.705L13.5671 50.0904L11.6476 51.9607C11.5479 52.0584 11.4734 52.1788 11.4306 52.3116C11.3877 52.4444 11.3777 52.5856 11.4015 52.7231L11.8543 55.3622L9.48394 54.1165C9.36023 54.0518 9.22268 54.018 9.08306 54.018C8.94343 54.018 8.80588 54.0518 8.68217 54.1165L6.30983 55.3613L6.76264 52.7221C6.78641 52.5846 6.77643 52.4434 6.73356 52.3106C6.6907 52.1778 6.61622 52.0574 6.51654 51.9597L4.59701 50.0894L7.24744 49.704C7.38561 49.6841 7.51683 49.6307 7.62977 49.5487C7.74271 49.4666 7.83396 49.3583 7.89565 49.233L9.85308 45.267C9.90544 45.1653 9.93702 45.0543 9.946 44.9403C9.95498 44.8263 9.94118 44.7116 9.90539 44.603C9.8696 44.4944 9.81254 44.394 9.73755 44.3077C9.66255 44.2214 9.57112 44.1509 9.46859 44.1003C9.36606 44.0497 9.25447 44.02 9.14034 44.0129C9.02621 44.0059 8.91182 44.0216 8.80385 44.0593C8.69587 44.0969 8.59647 44.1557 8.51144 44.2321C8.42641 44.3086 8.35746 44.4012 8.3086 44.5046L6.551 48.0646L2.62186 48.6355C2.46291 48.6588 2.31363 48.726 2.19086 48.8296C2.06809 48.9332 1.97673 49.0691 1.92708 49.2219C1.87743 49.3747 1.87147 49.5383 1.90988 49.6943C1.94829 49.8503 2.02953 49.9924 2.14444 50.1047L4.9883 52.8767L4.31647 56.7896C4.2892 56.948 4.30683 57.1109 4.36736 57.2598C4.42789 57.4087 4.52891 57.5377 4.65896 57.6321C4.78902 57.7266 4.94293 57.7827 5.10325 57.7942C5.26358 57.8057 5.42393 57.7721 5.56613 57.6972L9.08084 55.85L12.5956 57.6972C12.7378 57.7721 12.8981 57.8057 13.0584 57.7942C13.2188 57.7827 13.3727 57.7266 13.5027 57.6321C13.6328 57.5377 13.7338 57.4087 13.7943 57.2598C13.8549 57.1109 13.8725 56.948 13.8452 56.7896L13.1739 52.8767L16.0172 50.1047C16.1321 49.9924 16.2134 49.8503 16.2518 49.6943C16.2902 49.5383 16.2843 49.3747 16.2346 49.2219C16.185 49.0691 16.0936 48.9332 15.9708 48.8296C15.8481 48.726 15.6988 48.6588 15.5398 48.6355L15.5403 48.6365Z" fill="black"/>
<path d="M60.3776 48.6365L56.448 48.0656L54.6909 44.5056C54.6198 44.3614 54.5098 44.24 54.3732 44.1551C54.2367 44.0702 54.0792 44.0252 53.9184 44.0252C53.7577 44.0252 53.6001 44.0702 53.4636 44.1551C53.3271 44.24 53.217 44.3614 53.1459 44.5056L51.3888 48.0656L47.4597 48.6365C47.3007 48.6598 47.1515 48.727 47.0287 48.8306C46.9059 48.9342 46.8146 49.0701 46.7649 49.2229C46.7153 49.3757 46.7093 49.5393 46.7477 49.6953C46.7861 49.8513 46.8674 49.9934 46.9823 50.1057L49.8256 52.8777L49.1543 56.7906C49.127 56.949 49.1447 57.1119 49.2052 57.2608C49.2657 57.4097 49.3667 57.5387 49.4968 57.6331C49.6269 57.7276 49.7808 57.7837 49.9411 57.7952C50.1014 57.8067 50.2618 57.7731 50.404 57.6982L53.9187 55.851L57.4329 57.6982C57.5751 57.7731 57.7354 57.8067 57.8958 57.7952C58.0561 57.7837 58.21 57.7276 58.34 57.6331C58.4701 57.5387 58.5711 57.4097 58.6316 57.2608C58.6922 57.1119 58.7098 56.949 58.6825 56.7906L58.0112 52.8777L60.8551 50.1057C60.97 49.9934 61.0512 49.8513 61.0896 49.6953C61.128 49.5393 61.1221 49.3757 61.0724 49.2229C61.0228 49.0701 60.9314 48.9342 60.8086 48.8306C60.6859 48.727 60.5366 48.6598 60.3776 48.6365V48.6365ZM56.4849 51.9598C56.3853 52.0574 56.3108 52.1778 56.2679 52.3106C56.225 52.4434 56.2151 52.5846 56.2388 52.7221L56.6916 55.3613L54.3208 54.1155C54.1971 54.0506 54.0596 54.0166 53.9199 54.0166C53.7802 54.0166 53.6427 54.0506 53.519 54.1155L51.1486 55.3613L51.6015 52.7221C51.6251 52.5846 51.6151 52.4435 51.5722 52.3107C51.5293 52.1779 51.4549 52.0575 51.3554 51.9598L49.4358 50.0894L52.0863 49.7041C52.2245 49.6841 52.3558 49.6308 52.4689 49.5488C52.5819 49.4667 52.6732 49.3583 52.735 49.233L53.9201 46.8316L55.1053 49.233C55.167 49.3583 55.2583 49.4666 55.3712 49.5487C55.4842 49.6307 55.6154 49.6841 55.7535 49.7041L58.404 50.0894L56.4849 51.9598Z" fill="black"/>
</g>
<g clip-path="url(#clip1)">
<path d="M89.9114 34.863C91.6984 40.8005 92.1348 47.0741 91.8577 53.2442C91.821 53.996 92.8467 53.5198 92.8706 52.9719C93.1541 46.7222 92.7289 40.3482 90.918 34.3326C90.7189 33.6732 89.7585 34.3501 89.9114 34.863ZM106.173 40.2208C106.614 41.7991 106.302 43.4237 106.396 45.0355C106.52 47.1904 107.84 48.8452 109.452 50.1624C109.551 49.8486 109.656 49.5364 109.76 49.2243C108.285 49.8645 105.916 50.9253 106.042 52.8986C106.152 54.598 107.449 55.8148 107.144 57.6257C107.018 58.3568 108.066 57.8821 108.157 57.355C108.39 56.0028 107.944 54.8433 107.406 53.6281C107.187 53.1343 106.953 52.5896 107.117 52.0497C107.413 51.0829 109.121 50.5207 109.925 50.1687C110.213 50.0429 110.551 49.4887 110.231 49.2306C108.576 47.8737 107.445 46.3112 107.382 44.1229C107.339 42.6242 107.592 41.1637 107.176 39.692C106.993 39.0294 106.031 39.7063 106.173 40.2208ZM106.544 10.4741C100.07 10.4741 94.8153 17.1491 94.8153 25.3849C94.8153 33.6175 103.564 40.8913 106.544 40.8913C109.529 40.8913 118.274 33.6191 118.274 25.3849C118.274 17.1491 113.023 10.4741 106.544 10.4741ZM109.635 14.9989L111.798 14.0242C118.422 21.005 113.45 26.3628 113.45 26.3628C115.724 19.8678 109.635 14.9989 109.635 14.9989ZM91.6474 34.597H90.0627C90.0627 34.597 89.7935 36.0909 89.0896 36.5449C88.3872 37.0004 91.0979 35.4857 92.2049 36.5034C92.0122 36.3346 91.3321 35.6482 91.6474 34.597ZM92.2049 36.5034C92.2367 36.5321 92.2558 36.5449 92.2558 36.5449C92.2383 36.5305 92.2192 36.5194 92.2049 36.5034ZM108.004 39.8736H106.421C106.421 39.8736 106.15 41.3659 105.45 41.8214C104.744 42.2769 107.456 40.7623 108.562 41.7816C108.369 41.608 107.691 40.9232 108.004 39.8736ZM108.56 41.78C108.594 41.8055 108.613 41.8198 108.613 41.8198C108.597 41.8055 108.579 41.7944 108.56 41.78ZM100.073 11.3803C97.9513 7.52442 94.4378 5 90.4545 5C83.977 5 78.7259 11.675 78.7259 19.9092C78.7259 28.1434 87.473 35.4156 90.4545 35.4156C91.6172 35.4156 93.659 34.3055 95.7168 32.4644C94.3327 30.182 93.3723 27.57 93.3723 24.8513C93.3723 18.9058 96.1117 13.7741 100.073 11.3803ZM85.7242 12.6768C85.6159 12.7899 85.5092 12.9045 85.4025 13.0224C85.1922 13.2581 84.9868 13.5034 84.7893 13.7534C84.3911 14.2551 84.0264 14.7823 83.6919 15.3302C83.0246 16.426 82.499 17.6125 82.2123 18.8644C81.9256 20.1131 81.9017 21.4318 82.2091 22.7123C82.5102 23.9928 83.1456 25.2129 83.9834 26.2879C82.9943 25.3514 82.1534 24.2142 81.623 22.9019C81.0863 21.5927 80.884 20.1274 80.9923 18.6876C81.0958 17.2446 81.4845 15.8303 82.0387 14.5004C82.3158 13.8331 82.636 13.1848 82.9943 12.5557C83.1743 12.2404 83.3622 11.9314 83.5613 11.6256C83.6633 11.4711 83.7636 11.3214 83.8703 11.1685C83.9818 11.014 84.0821 10.8723 84.2191 10.7018L86.038 12.3678C85.9456 12.449 85.8261 12.5669 85.7242 12.6768Z" fill="#FEA832"/>
</g>
<defs>
<clipPath id="clip0">
<rect width="63" height="63" fill="white"/>
</clipPath>
<clipPath id="clip1">
<rect width="53" height="53" fill="white" transform="translate(72 5)"/>
</clipPath>
</defs>
</svg>
