<svg width="159" height="74" viewBox="0 0 159 74" fill="none" xmlns="http://www.w3.org/2000/svg">
<rect x="10.6296" y="0.759258" width="20.5" height="38.7222" fill="white"/>
<path d="M29.6395 0H11.3605C9.83768 0 8.59128 1.24523 8.59128 2.76926V38.2296C8.59128 39.7536 9.83768 41 11.3605 41H29.6395C31.1624 41 32.4088 39.7559 32.4088 38.2307V2.76926C32.4088 1.24523 31.1624 0 29.6395 0ZM17.5761 1.99611H23.4239C23.609 1.99611 23.7589 2.14606 23.7589 2.33231C23.7589 2.5174 23.609 2.66734 23.4239 2.66734H17.5761C17.391 2.66734 17.2411 2.5174 17.2411 2.33231C17.2411 2.14606 17.391 1.99611 17.5761 1.99611ZM20.5 39.6154C19.7351 39.6154 19.1154 38.9957 19.1154 38.2296C19.1154 37.4635 19.7351 36.8449 20.5 36.8449C21.265 36.8449 21.8846 37.4635 21.8846 38.2296C21.8846 38.9957 21.265 39.6154 20.5 39.6154ZM30.4818 35.875H10.5183V4.39169H30.4818V35.875Z" fill="black"/>
<g clip-path="url(#clip0)">
<path d="M28.0926 12.9074H12.9074V28.0926H28.0926V12.9074Z" fill="white"/>
<path d="M15.5255 15.0019H15.0019V15.5255H15.5255V15.0019Z" fill="black"/>
<path d="M15.5255 15.5255H15.0019V16.0492H15.5255V15.5255Z" fill="black"/>
<path d="M15.5255 16.0492H15.0019V16.5728H15.5255V16.0492Z" fill="black"/>
<path d="M15.5255 16.5728H15.0019V17.0964H15.5255V16.5728Z" fill="black"/>
<path d="M15.5255 17.0964H15.0019V17.62H15.5255V17.0964Z" fill="black"/>
<path d="M15.5255 17.62H15.0019V18.1437H15.5255V17.62Z" fill="black"/>
<path d="M15.5255 18.1437H15.0019V18.6673H15.5255V18.1437Z" fill="black"/>
<path d="M15.5255 19.1909H15.0019V19.7146H15.5255V19.1909Z" fill="black"/>
<path d="M15.5255 19.7146H15.0019V20.2382H15.5255V19.7146Z" fill="black"/>
<path d="M15.5255 20.2382H15.0019V20.7618H15.5255V20.2382Z" fill="black"/>
<path d="M15.5255 20.7618H15.0019V21.2854H15.5255V20.7618Z" fill="black"/>
<path d="M15.5255 22.3327H15.0019V22.8563H15.5255V22.3327Z" fill="black"/>
<path d="M15.5255 22.8563H15.0019V23.3799H15.5255V22.8563Z" fill="black"/>
<path d="M15.5255 23.3799H15.0019V23.9036H15.5255V23.3799Z" fill="black"/>
<path d="M15.5255 23.9036H15.0019V24.4272H15.5255V23.9036Z" fill="black"/>
<path d="M15.5255 24.4272H15.0019V24.9508H15.5255V24.4272Z" fill="black"/>
<path d="M15.5255 24.9508H15.0019V25.4745H15.5255V24.9508Z" fill="black"/>
<path d="M15.5255 25.4745H15.0019V25.9981H15.5255V25.4745Z" fill="black"/>
<path d="M16.0492 15.0019H15.5255V15.5255H16.0492V15.0019Z" fill="black"/>
<path d="M16.0492 18.1437H15.5255V18.6673H16.0492V18.1437Z" fill="black"/>
<path d="M16.0492 19.1909H15.5255V19.7146H16.0492V19.1909Z" fill="black"/>
<path d="M16.0492 20.2382H15.5255V20.7618H16.0492V20.2382Z" fill="black"/>
<path d="M16.0492 20.7618H15.5255V21.2854H16.0492V20.7618Z" fill="black"/>
<path d="M16.0492 21.2854H15.5255V21.8091H16.0492V21.2854Z" fill="black"/>
<path d="M16.0492 22.3327H15.5255V22.8563H16.0492V22.3327Z" fill="black"/>
<path d="M16.0492 25.4745H15.5255V25.9981H16.0492V25.4745Z" fill="black"/>
<path d="M16.5728 15.0019H16.0492V15.5255H16.5728V15.0019Z" fill="black"/>
<path d="M16.5728 16.0492H16.0492V16.5728H16.5728V16.0492Z" fill="black"/>
<path d="M16.5728 16.5728H16.0492V17.0964H16.5728V16.5728Z" fill="black"/>
<path d="M16.5728 17.0964H16.0492V17.62H16.5728V17.0964Z" fill="black"/>
<path d="M16.5728 18.1437H16.0492V18.6673H16.5728V18.1437Z" fill="black"/>
<path d="M16.5728 19.1909H16.0492V19.7146H16.5728V19.1909Z" fill="black"/>
<path d="M16.5728 20.7618H16.0492V21.2854H16.5728V20.7618Z" fill="black"/>
<path d="M16.5728 21.2854H16.0492V21.8091H16.5728V21.2854Z" fill="black"/>
<path d="M16.5728 22.3327H16.0492V22.8563H16.5728V22.3327Z" fill="black"/>
<path d="M16.5728 23.3799H16.0492V23.9036H16.5728V23.3799Z" fill="black"/>
<path d="M16.5728 23.9036H16.0492V24.4272H16.5728V23.9036Z" fill="black"/>
<path d="M16.5728 24.4272H16.0492V24.9508H16.5728V24.4272Z" fill="black"/>
<path d="M16.5728 25.4745H16.0492V25.9981H16.5728V25.4745Z" fill="black"/>
<path d="M17.0964 15.0019H16.5728V15.5255H17.0964V15.0019Z" fill="black"/>
<path d="M17.0964 16.0492H16.5728V16.5728H17.0964V16.0492Z" fill="black"/>
<path d="M17.0964 16.5728H16.5728V17.0964H17.0964V16.5728Z" fill="black"/>
<path d="M17.0964 17.0964H16.5728V17.62H17.0964V17.0964Z" fill="black"/>
<path d="M17.0964 18.1437H16.5728V18.6673H17.0964V18.1437Z" fill="black"/>
<path d="M17.0964 19.1909H16.5728V19.7146H17.0964V19.1909Z" fill="black"/>
<path d="M17.0964 19.7146H16.5728V20.2382H17.0964V19.7146Z" fill="black"/>
<path d="M17.0964 20.2382H16.5728V20.7618H17.0964V20.2382Z" fill="black"/>
<path d="M17.0964 22.3327H16.5728V22.8563H17.0964V22.3327Z" fill="black"/>
<path d="M17.0964 23.3799H16.5728V23.9036H17.0964V23.3799Z" fill="black"/>
<path d="M17.0964 23.9036H16.5728V24.4272H17.0964V23.9036Z" fill="black"/>
<path d="M17.0964 24.4272H16.5728V24.9508H17.0964V24.4272Z" fill="black"/>
<path d="M17.0964 25.4745H16.5728V25.9981H17.0964V25.4745Z" fill="black"/>
<path d="M17.6201 15.0019H17.0964V15.5255H17.6201V15.0019Z" fill="black"/>
<path d="M17.6201 16.0492H17.0964V16.5728H17.6201V16.0492Z" fill="black"/>
<path d="M17.6201 16.5728H17.0964V17.0964H17.6201V16.5728Z" fill="black"/>
<path d="M17.6201 17.0964H17.0964V17.62H17.6201V17.0964Z" fill="black"/>
<path d="M17.6201 18.1437H17.0964V18.6673H17.6201V18.1437Z" fill="black"/>
<path d="M17.6201 19.7146H17.0964V20.2382H17.6201V19.7146Z" fill="black"/>
<path d="M17.6201 21.2854H17.0964V21.8091H17.6201V21.2854Z" fill="black"/>
<path d="M17.6201 22.3327H17.0964V22.8563H17.6201V22.3327Z" fill="black"/>
<path d="M17.6201 23.3799H17.0964V23.9036H17.6201V23.3799Z" fill="black"/>
<path d="M17.6201 23.9036H17.0964V24.4272H17.6201V23.9036Z" fill="black"/>
<path d="M17.6201 24.4272H17.0964V24.9508H17.6201V24.4272Z" fill="black"/>
<path d="M17.6201 25.4745H17.0964V25.9981H17.6201V25.4745Z" fill="black"/>
<path d="M18.1437 15.0019H17.6201V15.5255H18.1437V15.0019Z" fill="black"/>
<path d="M18.1437 18.1437H17.6201V18.6673H18.1437V18.1437Z" fill="black"/>
<path d="M18.1437 21.2854H17.6201V21.8091H18.1437V21.2854Z" fill="black"/>
<path d="M18.1437 22.3327H17.6201V22.8563H18.1437V22.3327Z" fill="black"/>
<path d="M18.1437 25.4745H17.6201V25.9981H18.1437V25.4745Z" fill="black"/>
<path d="M18.6673 15.0019H18.1437V15.5255H18.6673V15.0019Z" fill="black"/>
<path d="M18.6673 15.5255H18.1437V16.0492H18.6673V15.5255Z" fill="black"/>
<path d="M18.6673 16.0492H18.1437V16.5728H18.6673V16.0492Z" fill="black"/>
<path d="M18.6673 16.5728H18.1437V17.0964H18.6673V16.5728Z" fill="black"/>
<path d="M18.6673 17.0964H18.1437V17.62H18.6673V17.0964Z" fill="black"/>
<path d="M18.6673 17.62H18.1437V18.1437H18.6673V17.62Z" fill="black"/>
<path d="M18.6673 18.1437H18.1437V18.6673H18.6673V18.1437Z" fill="black"/>
<path d="M18.6673 19.1909H18.1437V19.7146H18.6673V19.1909Z" fill="black"/>
<path d="M18.6673 20.2382H18.1437V20.7618H18.6673V20.2382Z" fill="black"/>
<path d="M18.6673 21.2854H18.1437V21.8091H18.6673V21.2854Z" fill="black"/>
<path d="M18.6673 22.3327H18.1437V22.8563H18.6673V22.3327Z" fill="black"/>
<path d="M18.6673 22.8563H18.1437V23.3799H18.6673V22.8563Z" fill="black"/>
<path d="M18.6673 23.3799H18.1437V23.9036H18.6673V23.3799Z" fill="black"/>
<path d="M18.6673 23.9036H18.1437V24.4272H18.6673V23.9036Z" fill="black"/>
<path d="M18.6673 24.4272H18.1437V24.9508H18.6673V24.4272Z" fill="black"/>
<path d="M18.6673 24.9508H18.1437V25.4745H18.6673V24.9508Z" fill="black"/>
<path d="M18.6673 25.4745H18.1437V25.9981H18.6673V25.4745Z" fill="black"/>
<path d="M19.7146 15.0019H19.1909V15.5255H19.7146V15.0019Z" fill="black"/>
<path d="M19.7146 16.0492H19.1909V16.5728H19.7146V16.0492Z" fill="black"/>
<path d="M19.7146 16.5728H19.1909V17.0964H19.7146V16.5728Z" fill="black"/>
<path d="M19.7146 17.0964H19.1909V17.62H19.7146V17.0964Z" fill="black"/>
<path d="M19.7146 18.1437H19.1909V18.6673H19.7146V18.1437Z" fill="black"/>
<path d="M19.7146 19.1909H19.1909V19.7146H19.7146V19.1909Z" fill="black"/>
<path d="M19.7146 19.7146H19.1909V20.2382H19.7146V19.7146Z" fill="black"/>
<path d="M19.7146 20.7618H19.1909V21.2854H19.7146V20.7618Z" fill="black"/>
<path d="M19.7146 21.8091H19.1909V22.3327H19.7146V21.8091Z" fill="black"/>
<path d="M19.7146 23.9036H19.1909V24.4272H19.7146V23.9036Z" fill="black"/>
<path d="M19.7146 24.4272H19.1909V24.9508H19.7146V24.4272Z" fill="black"/>
<path d="M19.7146 24.9508H19.1909V25.4745H19.7146V24.9508Z" fill="black"/>
<path d="M19.7146 25.4745H19.1909V25.9981H19.7146V25.4745Z" fill="black"/>
<path d="M20.2382 16.0492H19.7146V16.5728H20.2382V16.0492Z" fill="black"/>
<path d="M20.2382 16.5728H19.7146V17.0964H20.2382V16.5728Z" fill="black"/>
<path d="M20.2382 17.62H19.7146V18.1437H20.2382V17.62Z" fill="black"/>
<path d="M20.2382 19.1909H19.7146V19.7146H20.2382V19.1909Z" fill="black"/>
<path d="M20.2382 20.2382H19.7146V20.7618H20.2382V20.2382Z" fill="black"/>
<path d="M20.2382 21.2854H19.7146V21.8091H20.2382V21.2854Z" fill="black"/>
<path d="M20.2382 22.8563H19.7146V23.3799H20.2382V22.8563Z" fill="black"/>
<path d="M20.2382 23.3799H19.7146V23.9036H20.2382V23.3799Z" fill="black"/>
<path d="M20.7618 15.0019H20.2382V15.5255H20.7618V15.0019Z" fill="black"/>
<path d="M20.7618 15.5255H20.2382V16.0492H20.7618V15.5255Z" fill="black"/>
<path d="M20.7618 17.62H20.2382V18.1437H20.7618V17.62Z" fill="black"/>
<path d="M20.7618 18.1437H20.2382V18.6673H20.7618V18.1437Z" fill="black"/>
<path d="M20.7618 19.1909H20.2382V19.7146H20.7618V19.1909Z" fill="black"/>
<path d="M20.7618 22.8563H20.2382V23.3799H20.7618V22.8563Z" fill="black"/>
<path d="M20.7618 24.4272H20.2382V24.9508H20.7618V24.4272Z" fill="black"/>
<path d="M20.7618 25.4745H20.2382V25.9981H20.7618V25.4745Z" fill="black"/>
<path d="M21.2854 15.0019H20.7618V15.5255H21.2854V15.0019Z" fill="black"/>
<path d="M21.2854 15.5255H20.7618V16.0492H21.2854V15.5255Z" fill="black"/>
<path d="M21.2854 16.0492H20.7618V16.5728H21.2854V16.0492Z" fill="black"/>
<path d="M21.2854 17.0964H20.7618V17.62H21.2854V17.0964Z" fill="black"/>
<path d="M21.2854 17.62H20.7618V18.1437H21.2854V17.62Z" fill="black"/>
<path d="M21.2854 18.6673H20.7618V19.1909H21.2854V18.6673Z" fill="black"/>
<path d="M21.2854 19.1909H20.7618V19.7146H21.2854V19.1909Z" fill="black"/>
<path d="M21.2854 20.2382H20.7618V20.7618H21.2854V20.2382Z" fill="black"/>
<path d="M21.2854 20.7618H20.7618V21.2854H21.2854V20.7618Z" fill="black"/>
<path d="M21.2854 21.2854H20.7618V21.8091H21.2854V21.2854Z" fill="black"/>
<path d="M21.2854 21.8091H20.7618V22.3327H21.2854V21.8091Z" fill="black"/>
<path d="M21.2854 22.3327H20.7618V22.8563H21.2854V22.3327Z" fill="black"/>
<path d="M21.2854 23.9036H20.7618V24.4272H21.2854V23.9036Z" fill="black"/>
<path d="M21.2854 24.4272H20.7618V24.9508H21.2854V24.4272Z" fill="black"/>
<path d="M21.8091 15.0019H21.2855V15.5255H21.8091V15.0019Z" fill="black"/>
<path d="M21.8091 16.5728H21.2855V17.0964H21.8091V16.5728Z" fill="black"/>
<path d="M21.8091 17.62H21.2855V18.1437H21.8091V17.62Z" fill="black"/>
<path d="M21.8091 18.1437H21.2855V18.6673H21.8091V18.1437Z" fill="black"/>
<path d="M21.8091 18.6673H21.2855V19.1909H21.8091V18.6673Z" fill="black"/>
<path d="M21.8091 19.1909H21.2855V19.7146H21.8091V19.1909Z" fill="black"/>
<path d="M21.8091 19.7146H21.2855V20.2382H21.8091V19.7146Z" fill="black"/>
<path d="M21.8091 21.2854H21.2855V21.8091H21.8091V21.2854Z" fill="black"/>
<path d="M21.8091 21.8091H21.2855V22.3327H21.8091V21.8091Z" fill="black"/>
<path d="M21.8091 22.8563H21.2855V23.3799H21.8091V22.8563Z" fill="black"/>
<path d="M21.8091 23.9036H21.2855V24.4272H21.8091V23.9036Z" fill="black"/>
<path d="M21.8091 24.4272H21.2855V24.9508H21.8091V24.4272Z" fill="black"/>
<path d="M22.3327 19.1909H21.8091V19.7146H22.3327V19.1909Z" fill="black"/>
<path d="M22.3327 19.7146H21.8091V20.2382H22.3327V19.7146Z" fill="black"/>
<path d="M22.3327 20.2382H21.8091V20.7618H22.3327V20.2382Z" fill="black"/>
<path d="M22.3327 22.3327H21.8091V22.8563H22.3327V22.3327Z" fill="black"/>
<path d="M22.3327 22.8563H21.8091V23.3799H22.3327V22.8563Z" fill="black"/>
<path d="M22.3327 23.3799H21.8091V23.9036H22.3327V23.3799Z" fill="black"/>
<path d="M22.3327 23.9036H21.8091V24.4272H22.3327V23.9036Z" fill="black"/>
<path d="M22.3327 24.9508H21.8091V25.4745H22.3327V24.9508Z" fill="black"/>
<path d="M22.3327 25.4745H21.8091V25.9981H22.3327V25.4745Z" fill="black"/>
<path d="M22.8563 15.0019H22.3327V15.5255H22.8563V15.0019Z" fill="black"/>
<path d="M22.8563 15.5255H22.3327V16.0492H22.8563V15.5255Z" fill="black"/>
<path d="M22.8563 16.0492H22.3327V16.5728H22.8563V16.0492Z" fill="black"/>
<path d="M22.8563 16.5728H22.3327V17.0964H22.8563V16.5728Z" fill="black"/>
<path d="M22.8563 17.0964H22.3327V17.62H22.8563V17.0964Z" fill="black"/>
<path d="M22.8563 17.62H22.3327V18.1437H22.8563V17.62Z" fill="black"/>
<path d="M22.8563 18.1437H22.3327V18.6673H22.8563V18.1437Z" fill="black"/>
<path d="M22.8563 20.2382H22.3327V20.7618H22.8563V20.2382Z" fill="black"/>
<path d="M22.8563 21.2854H22.3327V21.8091H22.8563V21.2854Z" fill="black"/>
<path d="M22.8563 21.8091H22.3327V22.3327H22.8563V21.8091Z" fill="black"/>
<path d="M22.8563 22.3327H22.3327V22.8563H22.8563V22.3327Z" fill="black"/>
<path d="M22.8563 24.4272H22.3327V24.9508H22.8563V24.4272Z" fill="black"/>
<path d="M22.8563 24.9508H22.3327V25.4745H22.8563V24.9508Z" fill="black"/>
<path d="M22.8563 25.4745H22.3327V25.9981H22.8563V25.4745Z" fill="black"/>
<path d="M23.38 15.0019H22.8563V15.5255H23.38V15.0019Z" fill="black"/>
<path d="M23.38 18.1437H22.8563V18.6673H23.38V18.1437Z" fill="black"/>
<path d="M23.38 19.7146H22.8563V20.2382H23.38V19.7146Z" fill="black"/>
<path d="M23.38 20.2382H22.8563V20.7618H23.38V20.2382Z" fill="black"/>
<path d="M23.38 22.3327H22.8563V22.8563H23.38V22.3327Z" fill="black"/>
<path d="M23.38 23.3799H22.8563V23.9036H23.38V23.3799Z" fill="black"/>
<path d="M23.38 24.9508H22.8563V25.4745H23.38V24.9508Z" fill="black"/>
<path d="M23.9036 15.0019H23.3799V15.5255H23.9036V15.0019Z" fill="black"/>
<path d="M23.9036 16.0492H23.3799V16.5728H23.9036V16.0492Z" fill="black"/>
<path d="M23.9036 16.5728H23.3799V17.0964H23.9036V16.5728Z" fill="black"/>
<path d="M23.9036 17.0964H23.3799V17.62H23.9036V17.0964Z" fill="black"/>
<path d="M23.9036 18.1437H23.3799V18.6673H23.9036V18.1437Z" fill="black"/>
<path d="M23.9036 19.1909H23.3799V19.7146H23.9036V19.1909Z" fill="black"/>
<path d="M23.9036 19.7146H23.3799V20.2382H23.9036V19.7146Z" fill="black"/>
<path d="M23.9036 20.7618H23.3799V21.2854H23.9036V20.7618Z" fill="black"/>
<path d="M23.9036 21.2854H23.3799V21.8091H23.9036V21.2854Z" fill="black"/>
<path d="M23.9036 21.8091H23.3799V22.3327H23.9036V21.8091Z" fill="black"/>
<path d="M23.9036 22.3327H23.3799V22.8563H23.9036V22.3327Z" fill="black"/>
<path d="M23.9036 24.9508H23.3799V25.4745H23.9036V24.9508Z" fill="black"/>
<path d="M23.9036 25.4745H23.3799V25.9981H23.9036V25.4745Z" fill="black"/>
<path d="M24.4272 15.0019H23.9036V15.5255H24.4272V15.0019Z" fill="black"/>
<path d="M24.4272 16.0492H23.9036V16.5728H24.4272V16.0492Z" fill="black"/>
<path d="M24.4272 16.5728H23.9036V17.0964H24.4272V16.5728Z" fill="black"/>
<path d="M24.4272 17.0964H23.9036V17.62H24.4272V17.0964Z" fill="black"/>
<path d="M24.4272 18.1437H23.9036V18.6673H24.4272V18.1437Z" fill="black"/>
<path d="M24.4272 19.1909H23.9036V19.7146H24.4272V19.1909Z" fill="black"/>
<path d="M24.4272 20.7618H23.9036V21.2854H24.4272V20.7618Z" fill="black"/>
<path d="M24.4272 22.8563H23.9036V23.3799H24.4272V22.8563Z" fill="black"/>
<path d="M24.4272 23.3799H23.9036V23.9036H24.4272V23.3799Z" fill="black"/>
<path d="M24.4272 23.9036H23.9036V24.4272H24.4272V23.9036Z" fill="black"/>
<path d="M24.4272 24.4272H23.9036V24.9508H24.4272V24.4272Z" fill="black"/>
<path d="M24.9508 15.0019H24.4272V15.5255H24.9508V15.0019Z" fill="black"/>
<path d="M24.9508 16.0492H24.4272V16.5728H24.9508V16.0492Z" fill="black"/>
<path d="M24.9508 16.5728H24.4272V17.0964H24.9508V16.5728Z" fill="black"/>
<path d="M24.9508 17.0964H24.4272V17.62H24.9508V17.0964Z" fill="black"/>
<path d="M24.9508 18.1437H24.4272V18.6673H24.9508V18.1437Z" fill="black"/>
<path d="M24.9508 19.1909H24.4272V19.7146H24.9508V19.1909Z" fill="black"/>
<path d="M24.9508 19.7146H24.4272V20.2382H24.9508V19.7146Z" fill="black"/>
<path d="M24.9508 22.3327H24.4272V22.8563H24.9508V22.3327Z" fill="black"/>
<path d="M24.9508 22.8563H24.4272V23.3799H24.9508V22.8563Z" fill="black"/>
<path d="M24.9508 23.3799H24.4272V23.9036H24.9508V23.3799Z" fill="black"/>
<path d="M24.9508 24.4272H24.4272V24.9508H24.9508V24.4272Z" fill="black"/>
<path d="M24.9508 25.4745H24.4272V25.9981H24.9508V25.4745Z" fill="black"/>
<path d="M25.4745 15.0019H24.9508V15.5255H25.4745V15.0019Z" fill="black"/>
<path d="M25.4745 18.1437H24.9508V18.6673H25.4745V18.1437Z" fill="black"/>
<path d="M25.4745 20.2382H24.9508V20.7618H25.4745V20.2382Z" fill="black"/>
<path d="M25.4745 21.8091H24.9508V22.3327H25.4745V21.8091Z" fill="black"/>
<path d="M25.4745 22.8563H24.9508V23.3799H25.4745V22.8563Z" fill="black"/>
<path d="M25.4745 23.3799H24.9508V23.9036H25.4745V23.3799Z" fill="black"/>
<path d="M25.4745 23.9036H24.9508V24.4272H25.4745V23.9036Z" fill="black"/>
<path d="M25.9981 15.0019H25.4745V15.5255H25.9981V15.0019Z" fill="black"/>
<path d="M25.9981 15.5255H25.4745V16.0492H25.9981V15.5255Z" fill="black"/>
<path d="M25.9981 16.0492H25.4745V16.5728H25.9981V16.0492Z" fill="black"/>
<path d="M25.9981 16.5728H25.4745V17.0964H25.9981V16.5728Z" fill="black"/>
<path d="M25.9981 17.0964H25.4745V17.62H25.9981V17.0964Z" fill="black"/>
<path d="M25.9981 17.62H25.4745V18.1437H25.9981V17.62Z" fill="black"/>
<path d="M25.9981 18.1437H25.4745V18.6673H25.9981V18.1437Z" fill="black"/>
<path d="M25.9981 19.1909H25.4745V19.7146H25.9981V19.1909Z" fill="black"/>
<path d="M25.9981 19.7146H25.4745V20.2382H25.9981V19.7146Z" fill="black"/>
<path d="M25.9981 20.2382H25.4745V20.7618H25.9981V20.2382Z" fill="black"/>
<path d="M25.9981 20.7618H25.4745V21.2854H25.9981V20.7618Z" fill="black"/>
<path d="M25.9981 24.9508H25.4745V25.4745H25.9981V24.9508Z" fill="black"/>
</g>
<g clip-path="url(#clip1)">
<path d="M112.681 10.6129C115.309 10.6129 117.439 8.48254 117.439 5.85456C117.439 3.22658 115.309 1.09618 112.681 1.09618C110.053 1.09618 107.922 3.22658 107.922 5.85456C107.922 8.48254 110.053 10.6129 112.681 10.6129Z" fill="#FFB69E"/>
<path d="M128.849 52.9945C127.976 52.9945 127.269 52.287 127.269 51.4143V29.2912C127.269 28.4185 127.977 27.711 128.849 27.711C129.722 27.711 130.429 28.4186 130.429 29.2912V51.4143C130.429 52.2871 129.722 52.9945 128.849 52.9945Z" fill="#87AFB9"/>
<path d="M128.849 30.7028C130.385 30.7028 131.63 29.4576 131.63 27.9216C131.63 26.3856 130.385 25.1405 128.849 25.1405C127.313 25.1405 126.068 26.3856 126.068 27.9216C126.068 29.4576 127.313 30.7028 128.849 30.7028Z" fill="#FFD23C"/>
<path d="M128.849 50.0869C126.371 50.0869 124.362 52.0962 124.362 54.5747H133.337C133.337 52.0962 131.328 50.0869 128.849 50.0869Z" fill="#C8E6EB"/>
<path d="M154.512 52.9945C153.639 52.9945 152.932 52.287 152.932 51.4143V29.2912C152.932 28.4185 153.64 27.711 154.512 27.711C155.385 27.711 156.092 28.4186 156.092 29.2912V51.4143C156.092 52.2871 155.385 52.9945 154.512 52.9945Z" fill="#87AFB9"/>
<path d="M154.512 30.7028C156.048 30.7028 157.293 29.4576 157.293 27.9216C157.293 26.3856 156.048 25.1405 154.512 25.1405C152.976 25.1405 151.731 26.3856 151.731 27.9216C151.731 29.4576 152.976 30.7028 154.512 30.7028Z" fill="#FFD23C"/>
<path d="M154.512 50.0869C152.034 50.0869 150.024 52.0962 150.024 54.5747H159C159 52.0962 156.991 50.0869 154.512 50.0869Z" fill="#C8E6EB"/>
<path d="M141.681 37.7832C136.693 37.7832 131.899 36.2673 127.819 33.3991C127.234 32.9886 127.094 32.1824 127.504 31.5983C127.915 31.0143 128.721 30.8737 129.305 31.284C136.707 36.4865 146.654 36.4865 154.057 31.284C154.641 30.8737 155.447 31.0143 155.857 31.5983C156.268 32.1824 156.127 32.9886 155.543 33.3991C151.462 36.2673 146.669 37.7832 141.681 37.7832Z" fill="#FF4619"/>
<path d="M116.007 58.9038C114.486 58.9038 113.252 57.6703 113.252 56.1487V34.1271C113.252 32.6055 114.486 31.3719 116.007 31.3719C117.529 31.3719 118.762 32.6055 118.762 34.1271V56.1487C118.762 57.6703 117.529 58.9038 116.007 58.9038Z" fill="#1A1D1F"/>
<path d="M109.356 58.9038C107.835 58.9038 106.601 57.6703 106.601 56.1487V34.1271C106.601 32.6055 107.835 31.3719 109.356 31.3719C110.878 31.3719 112.111 32.6055 112.111 34.1271V56.1487C112.111 57.6703 110.878 58.9038 109.356 58.9038Z" fill="#292D30"/>
<path d="M124.362 17.4838C124.347 14.5029 121.872 12.0778 118.844 12.0778C117.349 12.0778 108.346 12.0778 106.518 12.0778C103.491 12.0778 101.016 14.5028 101.001 17.4838C101.001 17.4876 101.001 17.4915 101.001 17.4953V34.3623C101.001 35.6303 102.028 36.6582 103.296 36.6582C104.564 36.6582 105.592 35.6303 105.592 34.3623V17.5028C105.597 17.0663 106.037 16.6695 106.518 16.6695H106.601V34.1271H118.762V16.6695H118.844C119.325 16.6695 119.765 17.0661 119.77 17.5028V34.3623C119.77 35.6303 120.798 36.6582 122.066 36.6582C123.334 36.6582 124.362 35.6303 124.362 34.3623V17.4952C124.362 17.4914 124.362 17.4875 124.362 17.4838Z" fill="#373C41"/>
<path d="M124.362 17.4838C124.347 14.5029 121.872 12.0778 118.844 12.0778C118.116 12.0778 113.405 12.0778 112.681 12.0778V34.1271H118.762V16.6695H118.844C119.325 16.6695 119.765 17.0661 119.77 17.5028V34.3623C119.77 35.6303 120.798 36.6582 122.066 36.6582C123.334 36.6582 124.362 35.6303 124.362 34.3623V17.4952C124.362 17.4914 124.362 17.4875 124.362 17.4838Z" fill="#292D30"/>
<path d="M101 33.1781V34.3622C101 35.6302 102.028 36.6581 103.296 36.6581C104.564 36.6581 105.592 35.6302 105.592 34.3622V33.1781H101Z" fill="white"/>
<path d="M119.77 33.1781V34.3622C119.77 35.6302 120.797 36.6581 122.065 36.6581C123.333 36.6581 124.361 35.6302 124.361 34.3622V33.1781H119.77Z" fill="white"/>
<path d="M101 34.3032V34.3622C101 35.6302 102.028 36.6581 103.296 36.6581C104.564 36.6581 105.592 35.6302 105.592 34.3622V34.3032H101Z" fill="#FFB69E"/>
<path d="M119.77 34.3032V34.3622C119.77 35.6302 120.797 36.6581 122.065 36.6581C123.333 36.6581 124.361 35.6302 124.361 34.3622V34.3032H119.77Z" fill="#FFB69E"/>
<path d="M109.178 12.0778L112.681 21.2711L116.185 12.0778H109.178Z" fill="white"/>
<path d="M114.205 15.2074L113.427 13.7919L114.097 12.572C114.219 12.3501 114.058 12.0778 113.805 12.0778H111.556C111.303 12.0778 111.142 12.3498 111.264 12.572L111.937 13.796L111.161 15.2075C111.054 15.403 111.019 15.6299 111.062 15.8488L111.541 18.2789L112.681 21.2712L113.822 18.2784L114.303 15.849C114.347 15.63 114.312 15.4028 114.205 15.2074Z" fill="#292D30"/>
<path d="M114.205 15.2074L113.427 13.7919L114.097 12.572C114.219 12.3501 114.059 12.0778 113.805 12.0778H112.681V21.2693V21.2712L113.822 18.2783L114.303 15.8489C114.347 15.63 114.312 15.4029 114.205 15.2074Z" fill="#1A1D1F"/>
<path d="M117.41 19.1413H114.377V20.0767H117.41V19.1413Z" fill="#373C41"/>
</g>
<path d="M61.3572 27.0357C59.7947 28.375 57.7857 30.3095 56.8929 31.5C57.7857 32.6161 59.9286 35.1161 61.3572 36.1875C63.1429 37.5268 64.259 37.75 66.4911 38.4196C68.7232 39.0893 69.6161 38.6429 70.9554 38.4196C72.2947 38.1964 75.1965 36.1875 76.3125 35.5179C77.2054 34.9821 79.2143 32.6161 80.1072 31.5L76.3125 27.7054C74.9732 26.3661 72.9643 25.25 71.625 24.8036C70.2857 24.3571 68.2343 23.9698 66.4911 24.3571C64.4822 24.8036 62.873 25.7364 61.3572 27.0357Z" fill="white" stroke="black"/>
<path d="M80.8411 31.0137C80.6178 30.7082 75.2963 23.533 68.4999 23.533C61.7034 23.533 56.3817 30.7082 56.1586 31.0135C55.9471 31.3033 55.9471 31.6964 56.1586 31.9863C56.3817 32.2918 61.7034 39.467 68.4999 39.467C75.2963 39.467 80.6178 32.2917 80.8411 31.9865C81.0529 31.6967 81.0529 31.3033 80.8411 31.0137ZM68.4999 37.8187C63.4936 37.8187 59.1576 33.0563 57.874 31.4994C59.1559 29.9412 63.4828 25.1813 68.4999 25.1813C73.5059 25.1813 77.8416 29.9428 79.1257 31.5006C77.8438 33.0588 73.5169 37.8187 68.4999 37.8187Z" fill="black"/>
<path d="M68.4999 26.5549C65.7732 26.5549 63.5548 28.7734 63.5548 31.5C63.5548 34.2267 65.7732 36.4451 68.4999 36.4451C71.2265 36.4451 73.445 34.2267 73.445 31.5C73.445 28.7734 71.2265 26.5549 68.4999 26.5549ZM68.4999 34.7967C66.682 34.7967 65.2032 33.3179 65.2032 31.5C65.2032 29.6822 66.6821 28.2033 68.4999 28.2033C70.3177 28.2033 71.7966 29.6822 71.7966 31.5C71.7966 33.3179 70.3178 34.7967 68.4999 34.7967Z" fill="black"/>
<path d="M33.2245 50.6224H7.47961L6.59186 51.5102V67.4898L7.77553 68.3775H33.2245L34.4082 67.4898V51.5102L33.2245 50.6224Z" fill="#EABE24" stroke="black"/>
<path d="M33.1528 50.0484H7.84716C6.82865 50.0484 6 50.877 6 51.8955V67.1044C6 68.123 6.82865 68.9516 7.84716 68.9516H33.1528C34.1713 68.9516 35 68.123 35 67.1044V51.8955C35 50.877 34.1713 50.0484 33.1528 50.0484ZM33.7686 67.1044C33.7686 67.4439 33.4923 67.7201 33.1528 67.7201H7.84716C7.50766 67.7201 7.23142 67.4439 7.23142 67.1044V51.8955C7.23142 51.556 7.50766 51.2797 7.84716 51.2797H33.1528C33.4923 51.2797 33.7686 51.556 33.7686 51.8955V67.1044Z" fill="black"/>
<path d="M29.9084 55.4505H23.3004C22.9604 55.4505 22.6847 55.7263 22.6847 56.0663C22.6847 56.4063 22.9604 56.682 23.3004 56.682H29.9084C30.2485 56.682 30.5242 56.4063 30.5242 56.0663C30.5242 55.7263 30.2485 55.4505 29.9084 55.4505Z" fill="black"/>
<path d="M29.9084 58.8843H23.3004C22.9604 58.8843 22.6847 59.1599 22.6847 59.5C22.6847 59.84 22.9604 60.1157 23.3004 60.1157H29.9084C30.2485 60.1157 30.5242 59.84 30.5242 59.5C30.5242 59.1599 30.2485 58.8843 29.9084 58.8843Z" fill="black"/>
<path d="M29.9084 62.318H23.3004C22.9604 62.318 22.6847 62.5937 22.6847 62.9337C22.6847 63.2737 22.9604 63.5495 23.3004 63.5495H29.9084C30.2485 63.5495 30.5242 63.2737 30.5242 62.9337C30.5242 62.5937 30.2485 62.318 29.9084 62.318Z" fill="black"/>
<path d="M17.3704 61.4395C17.358 61.4387 16.231 61.4856 15.9267 60.2665C16.3379 59.9428 16.683 59.493 16.9297 58.9559C16.9479 58.9577 16.9661 58.9599 16.9843 58.9599C17.1521 58.9599 17.3147 58.8834 17.4215 58.7462C17.9386 58.0821 18.2075 57.2198 18.1787 56.3181C18.1189 54.4487 16.8184 52.9751 15.2157 52.9577C15.1719 52.956 15.1328 52.9571 15.1013 52.9582C15.1006 52.9582 15.0998 52.9583 15.099 52.9583C14.7102 52.7898 14.3006 52.7108 13.8784 52.7247C12.976 52.7535 12.148 53.2005 11.5472 53.9834C10.9715 54.7335 10.6723 55.7096 10.705 56.732C10.7106 56.905 10.7243 57.0645 10.7463 57.2156C10.8059 57.651 10.926 58.0683 11.1031 58.4559C11.1883 58.6422 11.3693 58.7664 11.5739 58.7786C11.6296 58.7822 11.6842 58.7765 11.7368 58.7638C11.9875 59.3854 12.3664 59.9025 12.8246 60.2636C12.5263 61.4807 11.3927 61.4389 11.3803 61.4397C10.1689 61.4793 9.19537 62.4765 9.19537 63.6973V65.9411C9.19537 66.2472 9.44346 66.4953 9.74955 66.4953H19.0012C19.3073 66.4953 19.5553 66.2472 19.5553 65.9411V63.6973C19.5554 62.4763 18.5819 61.4792 17.3704 61.4395ZM11.8511 57.1113C11.8486 57.0944 11.8462 57.0774 11.8438 57.0603C11.8272 56.9464 11.8171 56.8272 11.8129 56.6963C11.7883 55.9293 12.0062 55.2055 12.4265 54.6581C12.8214 54.1436 13.3498 53.8503 13.914 53.8323C13.9326 53.8316 14.3755 53.7966 14.748 54.0167C14.826 54.0628 14.9216 54.0766 15.0117 54.0744C15.0231 54.0741 15.1891 54.0657 15.1975 54.0658C16.1904 54.0723 17.031 55.0985 17.0711 56.3534C17.0757 56.4971 17.07 56.6392 17.0543 56.7781C16.6876 56.1486 16.1428 55.6612 15.4945 55.3886C15.3552 55.3301 15.1979 55.3309 15.0593 55.391C14.9206 55.4512 14.8125 55.5654 14.76 55.7072C14.7173 55.8228 14.6653 55.9355 14.6056 56.0423C14.4601 56.3025 14.1624 56.456 13.8287 56.4455C13.7624 56.4432 13.6953 56.4431 13.6293 56.4452C13.3046 56.4556 12.9879 56.5175 12.6859 56.6301C12.3841 56.744 12.1037 56.9058 11.8511 57.1113ZM12.6234 57.9157C12.7638 57.8119 12.9181 57.7352 13.0752 57.6679C13.3616 57.5451 13.7485 57.5518 13.7904 57.5533C14.5042 57.5775 15.1559 57.2435 15.5185 56.6745C15.8013 56.8911 16.0348 57.1829 16.1977 57.5287C16.0261 58.7724 15.2521 59.7185 14.3738 59.7185C13.5902 59.7185 12.887 58.9774 12.6234 57.9157ZM13.8412 60.7644C14.0146 60.8053 14.1926 60.8268 14.3738 60.8268C14.5567 60.8268 14.7358 60.8051 14.9098 60.7646C15.0884 61.3348 15.4635 61.8188 15.955 62.1378C15.7186 62.7883 15.0931 63.2445 14.3754 63.2445C13.6577 63.2445 13.0323 62.7883 12.7958 62.1377C13.2874 61.8186 13.6626 61.3347 13.8412 60.7644ZM10.3038 65.3869V63.6973C10.3038 63.0624 10.8203 62.546 11.4552 62.546C11.4679 62.546 11.67 62.5343 11.7566 62.5227C12.1512 63.599 13.1872 64.3528 14.3754 64.3528C15.5636 64.3528 16.5996 63.599 16.9942 62.5227C17.0809 62.5343 17.2829 62.546 17.2955 62.546C17.9305 62.546 18.4469 63.0625 18.4469 63.6973V65.3869H10.3038Z" fill="black"/>
<defs>
<clipPath id="clip0">
<rect width="15.1852" height="15.1852" fill="white" transform="translate(12.9074 12.9074)"/>
</clipPath>
<clipPath id="clip1">
<rect width="58" height="58" fill="white" transform="translate(101 1)"/>
</clipPath>
</defs>
</svg>
