<svg width="64" height="61" viewBox="0 0 64 61" fill="none" xmlns="http://www.w3.org/2000/svg">
<rect x="0.5" y="0.5" width="63" height="60" fill="white" stroke="black"/>
<rect x="5.5" y="37.5" width="49" height="16" fill="white" stroke="black"/>
<circle cx="13.5" cy="45.5" r="3.5" fill="black"/>
<circle cx="24.5" cy="45.5" r="3.5" fill="black"/>
<circle cx="35.5" cy="45.5" r="3.5" fill="black"/>
<circle cx="46.5" cy="45.5" r="3.5" fill="black"/>
<path d="M19.19 23.4331C16.4919 23.4331 14.2974 21.1909 14.2974 18.4342C14.2974 15.6784 16.4919 13.4363 19.19 13.4363C21.888 13.4363 24.0825 15.6784 24.0825 18.4342C24.0825 21.1909 21.888 23.4331 19.19 23.4331ZM22.2838 18.4332C22.2838 16.6911 20.8959 15.2731 19.19 15.2731C17.485 15.2731 16.0971 16.6911 16.0971 18.4332C16.0971 20.1762 17.485 21.5943 19.19 21.5943C20.8959 21.5952 22.2838 20.1772 22.2838 18.4332Z" fill="black"/>
<path d="M29.9056 21.7104C28.4969 26.5496 24.1885 29.8703 19.1909 29.8703C13.0203 29.8693 8 24.7389 8 18.4332C8 12.1295 13.0203 7 19.19 7C23.932 7 28.1751 10.1108 29.7399 14.6463L54 14.6463L54 21.7094H51.4534V29.523L44.9619 29.523V21.7094H43.9167V29.523H37.4262L37.4262 21.7094H29.9056V21.7104ZM39.2259 27.6852H42.118V19.8716L46.7606 19.8716V27.6852L49.6537 27.6852V19.8716H52.2003L52.2003 16.4861L28.4032 16.4861L28.2177 15.8187C27.0722 11.7087 23.3621 8.83879 19.19 8.83879C14.0125 8.83879 9.79872 13.1441 9.79872 18.4342C9.79872 23.7252 14.0125 28.0305 19.19 28.0305C23.5164 28.0305 27.3628 24.8995 28.3341 20.5844L28.495 19.8725H39.2259L39.2259 27.6852Z" fill="black"/>
</svg>
