<svg viewBox="0 0 512 512" fill="none" xmlns="http://www.w3.org/2000/svg">
<circle cx="255.5" cy="255.5" r="249" fill="#116D70" stroke="black" stroke-width="7"/>
<path d="M58.0312 257.717C58.0312 245.363 60.8877 235.549 66.6006 228.273C72.3135 220.949 79.8818 217.287 89.3057 217.287C98.9736 217.287 106.518 220.705 111.938 227.541L112.597 218.752H124.975V296.096C124.975 306.35 121.923 314.431 115.819 320.339C109.765 326.247 101.61 329.201 91.3564 329.201C85.6436 329.201 80.0527 327.98 74.584 325.539C69.1152 323.098 64.9404 319.753 62.0596 315.505L69.0908 307.375C74.9014 314.553 82.0059 318.142 90.4043 318.142C96.9961 318.142 102.123 316.286 105.785 312.575C109.496 308.864 111.352 303.64 111.352 296.901V290.09C105.932 296.34 98.5342 299.465 89.1592 299.465C79.8818 299.465 72.3623 295.729 66.6006 288.259C60.8877 280.788 58.0312 270.607 58.0312 257.717ZM71.6543 259.255C71.6543 268.19 73.4854 275.222 77.1475 280.349C80.8096 285.427 85.9365 287.966 92.5283 287.966C101.073 287.966 107.348 284.084 111.352 276.32V240.139C107.201 232.57 100.976 228.786 92.6748 228.786C86.083 228.786 80.9316 231.35 77.2207 236.477C73.5098 241.604 71.6543 249.196 71.6543 259.255ZM191.625 276.979C191.625 273.317 190.233 270.485 187.45 268.483C184.716 266.433 179.906 264.675 173.021 263.21C166.186 261.745 160.741 259.987 156.688 257.937C152.685 255.886 149.706 253.444 147.753 250.612C145.849 247.78 144.896 244.411 144.896 240.505C144.896 234.011 147.631 228.518 153.1 224.025C158.617 219.533 165.648 217.287 174.193 217.287C183.178 217.287 190.453 219.606 196.02 224.245C201.635 228.884 204.442 234.816 204.442 242.043H190.819C190.819 238.332 189.232 235.134 186.059 232.448C182.934 229.763 178.979 228.42 174.193 228.42C169.262 228.42 165.404 229.494 162.621 231.643C159.838 233.791 158.446 236.599 158.446 240.065C158.446 243.337 159.74 245.803 162.328 247.463C164.916 249.123 169.579 250.71 176.317 252.224C183.104 253.737 188.598 255.544 192.797 257.644C196.996 259.743 200.097 262.282 202.099 265.261C204.149 268.19 205.175 271.779 205.175 276.027C205.175 283.107 202.343 288.796 196.679 293.093C191.015 297.341 183.666 299.465 174.633 299.465C168.285 299.465 162.67 298.342 157.787 296.096C152.904 293.85 149.071 290.725 146.288 286.721C143.554 282.668 142.187 278.298 142.187 273.61H155.736C155.98 278.151 157.787 281.765 161.156 284.45C164.574 287.087 169.066 288.405 174.633 288.405C179.76 288.405 183.861 287.38 186.938 285.329C190.062 283.229 191.625 280.446 191.625 276.979ZM219.237 257.644C219.237 249.88 220.751 242.897 223.778 236.696C226.854 230.495 231.103 225.71 236.522 222.341C241.991 218.972 248.217 217.287 255.199 217.287C265.99 217.287 274.706 221.022 281.347 228.493C288.036 235.964 291.381 245.9 291.381 258.303V259.255C291.381 266.97 289.892 273.903 286.913 280.056C283.983 286.159 279.76 290.92 274.242 294.338C268.773 297.756 262.475 299.465 255.346 299.465C244.604 299.465 235.888 295.729 229.198 288.259C222.558 280.788 219.237 270.9 219.237 258.596V257.644ZM232.86 259.255C232.86 268.044 234.887 275.1 238.939 280.422C243.041 285.744 248.51 288.405 255.346 288.405C262.23 288.405 267.699 285.72 271.752 280.349C275.805 274.929 277.831 267.36 277.831 257.644C277.831 248.952 275.756 241.921 271.605 236.55C267.504 231.13 262.035 228.42 255.199 228.42C248.51 228.42 243.114 231.081 239.013 236.403C234.911 241.726 232.86 249.343 232.86 259.255ZM354.516 276.979C354.516 273.317 353.124 270.485 350.341 268.483C347.606 266.433 342.797 264.675 335.912 263.21C329.076 261.745 323.632 259.987 319.579 257.937C315.575 255.886 312.597 253.444 310.644 250.612C308.739 247.78 307.787 244.411 307.787 240.505C307.787 234.011 310.521 228.518 315.99 224.025C321.508 219.533 328.539 217.287 337.084 217.287C346.068 217.287 353.344 219.606 358.91 224.245C364.525 228.884 367.333 234.816 367.333 242.043H353.71C353.71 238.332 352.123 235.134 348.949 232.448C345.824 229.763 341.869 228.42 337.084 228.42C332.152 228.42 328.295 229.494 325.512 231.643C322.729 233.791 321.337 236.599 321.337 240.065C321.337 243.337 322.631 245.803 325.219 247.463C327.807 249.123 332.47 250.71 339.208 252.224C345.995 253.737 351.488 255.544 355.688 257.644C359.887 259.743 362.987 262.282 364.989 265.261C367.04 268.19 368.065 271.779 368.065 276.027C368.065 283.107 365.233 288.796 359.569 293.093C353.905 297.341 346.557 299.465 337.523 299.465C331.176 299.465 325.561 298.342 320.678 296.096C315.795 293.85 311.962 290.725 309.179 286.721C306.444 282.668 305.077 278.298 305.077 273.61H318.627C318.871 278.151 320.678 281.765 324.047 284.45C327.465 287.087 331.957 288.405 337.523 288.405C342.65 288.405 346.752 287.38 349.828 285.329C352.953 283.229 354.516 280.446 354.516 276.979ZM399.267 228.347C405.272 220.974 413.085 217.287 422.704 217.287C439.452 217.287 447.899 226.735 448.046 245.632V298H434.496V245.559C434.447 239.846 433.129 235.622 430.541 232.888C428.002 230.153 424.022 228.786 418.603 228.786C414.208 228.786 410.351 229.958 407.03 232.302C403.71 234.646 401.122 237.722 399.267 241.53V298H385.717V185.5H399.267V228.347Z" fill="#FFA500"/>
</svg>
