<svg width="49" height="49" viewBox="0 0 49 49" fill="none" xmlns="http://www.w3.org/2000/svg">
<path d="M24.3224 26.4026C24.3732 26.4026 24.4239 26.4026 24.4848 26.4026C24.5051 26.4026 24.5254 26.4026 24.5457 26.4026C24.5761 26.4026 24.6167 26.4026 24.6472 26.4026C27.6202 26.3518 30.0251 25.3067 31.8008 23.3077C35.7074 18.9039 35.058 11.3545 34.987 10.6341C34.7333 5.22572 32.1762 2.63823 30.0657 1.43073C28.4929 0.527646 26.6563 0.0405881 24.6066 0H24.5355C24.5254 0 24.5051 0 24.4949 0H24.4341C23.3077 0 21.0957 0.182647 18.975 1.39014C16.8441 2.59764 14.2464 5.18513 13.9928 10.6341C13.9217 11.3545 13.2723 18.9039 17.1789 23.3077C18.9445 25.3067 21.3494 26.3518 24.3224 26.4026ZM16.702 10.8878C16.702 10.8573 16.7122 10.8269 16.7122 10.8066C17.047 3.53117 22.2119 2.74984 24.4239 2.74984H24.4645C24.4848 2.74984 24.5152 2.74984 24.5457 2.74984C27.2854 2.81073 31.9429 3.9269 32.2574 10.8066C32.2574 10.837 32.2574 10.8675 32.2676 10.8878C32.2777 10.9588 32.988 17.8588 29.7613 21.4914C28.4827 22.9323 26.778 23.6426 24.5355 23.6629C24.5152 23.6629 24.5051 23.6629 24.4848 23.6629C24.4645 23.6629 24.4544 23.6629 24.4341 23.6629C22.2017 23.6426 20.4869 22.9323 19.2185 21.4914C16.0019 17.8791 16.6919 10.9486 16.702 10.8878Z" fill="white"/>
<path d="M45.3369 38.924C45.3369 38.9139 45.3369 38.9037 45.3369 38.8936C45.3369 38.8124 45.3268 38.7312 45.3268 38.6399C45.2659 36.6308 45.134 31.9327 40.7302 30.4309C40.6998 30.4208 40.6592 30.4106 40.6287 30.4005C36.0524 29.2336 32.2473 26.5954 32.2067 26.5649C31.5877 26.1286 30.7354 26.2808 30.2991 26.8998C29.8627 27.5187 30.0149 28.3711 30.6339 28.8074C30.8064 28.9292 34.8449 31.7399 39.8981 33.0387C42.2624 33.8809 42.5262 36.4075 42.5973 38.7211C42.5973 38.8124 42.5973 38.8936 42.6074 38.9747C42.6175 39.888 42.5567 41.2984 42.3943 42.1102C40.7505 43.0437 34.3071 46.2705 24.5051 46.2705C14.7437 46.2705 8.25971 43.0336 6.60574 42.1C6.44339 41.2883 6.37236 39.8778 6.39265 38.9646C6.39265 38.8834 6.4028 38.8022 6.4028 38.7109C6.47383 36.3974 6.73765 33.8708 9.10191 33.0286C14.1551 31.7298 18.1936 28.9089 18.3661 28.7973C18.9851 28.3609 19.1373 27.5086 18.701 26.8896C18.2647 26.2707 17.4123 26.1184 16.7934 26.5548C16.7528 26.5852 12.9679 29.2234 8.37132 30.3903C8.33073 30.4005 8.30029 30.4106 8.26985 30.4208C3.86604 31.9327 3.73413 36.6308 3.67325 38.6297C3.67325 38.7211 3.67325 38.8022 3.6631 38.8834C3.6631 38.8936 3.6631 38.9037 3.6631 38.9139C3.65295 39.4415 3.64281 42.1508 4.1806 43.5105C4.28207 43.7743 4.46472 43.9975 4.70825 44.1497C5.01266 44.3527 12.3084 49 24.5152 49C36.7221 49 44.0178 44.3425 44.3222 44.1497C44.5556 43.9975 44.7484 43.7743 44.8499 43.5105C45.3572 42.1609 45.3471 39.4517 45.3369 38.924Z" fill="white"/>
</svg>
