<svg width="49" height="49" viewBox="0 0 49 49" fill="none" xmlns="http://www.w3.org/2000/svg">
<path d="M43.2664 46.9886C40.9854 42.2503 36.8796 38.5281 31.9029 36.6515V33.6551C34.3497 33.5203 38.9636 32.8982 41.6697 30.1299C42.0118 29.7774 42.1466 29.2694 42.0222 28.7924C41.8978 28.3155 41.5245 27.9422 41.0476 27.8074C41.0061 27.7971 37.4395 26.5736 38.1549 19.2744C38.4659 16.164 38.4141 13.3646 38.0097 10.9592C37.5431 8.20123 36.61 6.03428 35.2518 4.52052C33.7795 2.89272 31.8614 2.06327 29.5493 2.06327C29.456 2.06327 29.3627 2.06327 29.2797 2.06327C28.3984 1.29602 26.4699 0 23.515 0C22.136 0 20.6949 0.279941 19.2226 0.85019L19.1604 0.870927C17.9991 1.30639 15.8426 2.12548 14.0178 4.55163C11.8923 7.37177 10.8762 11.5501 11.0006 16.9623C11.125 22.3849 10.2334 25.0391 9.46612 26.3144C8.83366 27.3616 8.23231 27.569 8.07679 27.6105C7.54801 27.569 7.12292 27.8386 6.85334 28.2948C6.5734 28.7613 6.67708 29.3523 6.98813 29.8085C7.11255 29.9951 7.83832 30.9697 9.59054 31.9132C11.5916 32.9915 14.0903 33.6033 17.0453 33.7277V36.5789C12.1307 38.4452 8.04568 42.1985 5.73358 46.9989C5.52622 47.4344 5.55732 47.9424 5.80616 48.3468C6.06536 48.7512 6.51119 49 6.98813 49H42.0118C42.4888 49 42.945 48.7512 43.1938 48.3468C43.4426 47.9321 43.4737 47.424 43.2664 46.9886ZM9.37281 46.1902C11.6123 42.748 14.9716 40.1456 18.8597 38.891C19.4403 38.7044 19.8343 38.1653 19.8343 37.5639V32.3487C19.8343 31.9755 19.6891 31.6126 19.4196 31.3534C19.15 31.0942 18.7975 30.9386 18.4242 30.949C14.391 30.9905 11.9545 30.0677 10.6274 29.2797C10.7207 29.1864 10.8244 29.0931 10.928 28.9894C12.9706 26.8639 13.9348 22.7996 13.8 16.9001C13.5304 6.00317 18.165 4.24058 20.135 3.49408L20.1972 3.47334C21.3584 3.03788 22.4678 2.80978 23.4943 2.80978C26.1693 2.80978 27.5379 4.28206 27.6519 4.41684C27.9422 4.77973 28.388 4.95599 28.8546 4.91452C29.0827 4.89378 29.3108 4.88341 29.5285 4.88341C31.0319 4.88341 32.2243 5.38108 33.1574 6.4179C35.1274 8.59522 35.9361 13.1883 35.3555 19.0152C34.7748 24.894 36.61 27.8386 38.1963 29.2694C36.0605 30.4513 33.0226 30.8972 30.7313 30.8972C30.6068 30.8972 30.5343 30.8972 30.5239 30.8972C30.1506 30.8868 29.7774 31.0319 29.5078 31.2912C29.2382 31.5504 29.0827 31.9132 29.0827 32.2969V37.6572C29.0827 38.2689 29.4767 38.7977 30.0573 38.9843C33.9972 40.2596 37.3669 42.8309 39.596 46.211H9.37281V46.1902Z" fill="white"/>
</svg>
