<svg width="43" height="40" viewBox="0 0 43 40" fill="none" xmlns="http://www.w3.org/2000/svg">
<circle cx="20" cy="20" r="20" fill="#6BF078"/>
<path d="M21.2321 25.8419C20.4458 25.0556 20.4458 23.7808 21.2321 22.9945L37.803 6.42367C38.5892 5.6374 39.864 5.6374 40.6503 6.42367V6.42367C41.4366 7.20995 41.4366 8.48476 40.6503 9.27104L24.0795 25.8419C23.2932 26.6281 22.0184 26.6281 21.2321 25.8419V25.8419Z" fill="white"/>
<path d="M23.8673 25.8524C23.0452 26.6745 21.7124 26.6745 20.8903 25.8524L14.4885 19.4506C13.6664 18.6285 13.6664 17.2956 14.4885 16.4735V16.4735C15.3106 15.6515 16.6434 15.6515 17.4655 16.4735L23.8673 22.8754C24.6894 23.6974 24.6894 25.0303 23.8673 25.8524V25.8524Z" fill="white"/>
</svg>
