<svg width="64" height="64" viewBox="0 0 64 64" fill="none" xmlns="http://www.w3.org/2000/svg">
<path d="M64 0H0V64H64V0Z" fill="white"/>
<path d="M11.0345 8.82758H8.82758V11.0345H11.0345V8.82758Z" fill="black"/>
<path d="M11.0345 11.0345H8.82758V13.2414H11.0345V11.0345Z" fill="black"/>
<path d="M11.0345 13.2414H8.82758V15.4483H11.0345V13.2414Z" fill="black"/>
<path d="M11.0345 15.4483H8.82758V17.6552H11.0345V15.4483Z" fill="black"/>
<path d="M11.0345 17.6552H8.82758V19.8621H11.0345V17.6552Z" fill="black"/>
<path d="M11.0345 19.8621H8.82758V22.069H11.0345V19.8621Z" fill="black"/>
<path d="M11.0345 22.069H8.82758V24.2759H11.0345V22.069Z" fill="black"/>
<path d="M11.0345 26.4828H8.82758V28.6897H11.0345V26.4828Z" fill="black"/>
<path d="M11.0345 28.6897H8.82758V30.8965H11.0345V28.6897Z" fill="black"/>
<path d="M11.0345 30.8965H8.82758V33.1034H11.0345V30.8965Z" fill="black"/>
<path d="M11.0345 33.1035H8.82758V35.3103H11.0345V33.1035Z" fill="black"/>
<path d="M11.0345 39.7241H8.82758V41.931H11.0345V39.7241Z" fill="black"/>
<path d="M11.0345 41.931H8.82758V44.1379H11.0345V41.931Z" fill="black"/>
<path d="M11.0345 44.1379H8.82758V46.3448H11.0345V44.1379Z" fill="black"/>
<path d="M11.0345 46.3448H8.82758V48.5517H11.0345V46.3448Z" fill="black"/>
<path d="M11.0345 48.5517H8.82758V50.7586H11.0345V48.5517Z" fill="black"/>
<path d="M11.0345 50.7586H8.82758V52.9655H11.0345V50.7586Z" fill="black"/>
<path d="M11.0345 52.9655H8.82758V55.1724H11.0345V52.9655Z" fill="black"/>
<path d="M13.2414 8.82758H11.0345V11.0345H13.2414V8.82758Z" fill="black"/>
<path d="M13.2414 22.069H11.0345V24.2759H13.2414V22.069Z" fill="black"/>
<path d="M13.2414 26.4828H11.0345V28.6897H13.2414V26.4828Z" fill="black"/>
<path d="M13.2414 30.8965H11.0345V33.1034H13.2414V30.8965Z" fill="black"/>
<path d="M13.2414 33.1035H11.0345V35.3103H13.2414V33.1035Z" fill="black"/>
<path d="M13.2414 35.3103H11.0345V37.5172H13.2414V35.3103Z" fill="black"/>
<path d="M13.2414 39.7241H11.0345V41.931H13.2414V39.7241Z" fill="black"/>
<path d="M13.2414 52.9655H11.0345V55.1724H13.2414V52.9655Z" fill="black"/>
<path d="M15.4483 8.82758H13.2414V11.0345H15.4483V8.82758Z" fill="black"/>
<path d="M15.4483 13.2414H13.2414V15.4483H15.4483V13.2414Z" fill="black"/>
<path d="M15.4483 15.4483H13.2414V17.6552H15.4483V15.4483Z" fill="black"/>
<path d="M15.4483 17.6552H13.2414V19.8621H15.4483V17.6552Z" fill="black"/>
<path d="M15.4483 22.069H13.2414V24.2759H15.4483V22.069Z" fill="black"/>
<path d="M15.4483 26.4828H13.2414V28.6897H15.4483V26.4828Z" fill="black"/>
<path d="M15.4483 33.1035H13.2414V35.3103H15.4483V33.1035Z" fill="black"/>
<path d="M15.4483 35.3103H13.2414V37.5172H15.4483V35.3103Z" fill="black"/>
<path d="M15.4483 39.7241H13.2414V41.931H15.4483V39.7241Z" fill="black"/>
<path d="M15.4483 44.1379H13.2414V46.3448H15.4483V44.1379Z" fill="black"/>
<path d="M15.4483 46.3448H13.2414V48.5517H15.4483V46.3448Z" fill="black"/>
<path d="M15.4483 48.5517H13.2414V50.7586H15.4483V48.5517Z" fill="black"/>
<path d="M15.4483 52.9655H13.2414V55.1724H15.4483V52.9655Z" fill="black"/>
<path d="M17.6552 8.82758H15.4483V11.0345H17.6552V8.82758Z" fill="black"/>
<path d="M17.6552 13.2414H15.4483V15.4483H17.6552V13.2414Z" fill="black"/>
<path d="M17.6552 15.4483H15.4483V17.6552H17.6552V15.4483Z" fill="black"/>
<path d="M17.6552 17.6552H15.4483V19.8621H17.6552V17.6552Z" fill="black"/>
<path d="M17.6552 22.069H15.4483V24.2759H17.6552V22.069Z" fill="black"/>
<path d="M17.6552 26.4828H15.4483V28.6897H17.6552V26.4828Z" fill="black"/>
<path d="M17.6552 28.6897H15.4483V30.8965H17.6552V28.6897Z" fill="black"/>
<path d="M17.6552 30.8965H15.4483V33.1034H17.6552V30.8965Z" fill="black"/>
<path d="M17.6552 39.7241H15.4483V41.931H17.6552V39.7241Z" fill="black"/>
<path d="M17.6552 44.1379H15.4483V46.3448H17.6552V44.1379Z" fill="black"/>
<path d="M17.6552 46.3448H15.4483V48.5517H17.6552V46.3448Z" fill="black"/>
<path d="M17.6552 48.5517H15.4483V50.7586H17.6552V48.5517Z" fill="black"/>
<path d="M17.6552 52.9655H15.4483V55.1724H17.6552V52.9655Z" fill="black"/>
<path d="M19.862 8.82758H17.6552V11.0345H19.862V8.82758Z" fill="black"/>
<path d="M19.862 13.2414H17.6552V15.4483H19.862V13.2414Z" fill="black"/>
<path d="M19.862 15.4483H17.6552V17.6552H19.862V15.4483Z" fill="black"/>
<path d="M19.862 17.6552H17.6552V19.8621H19.862V17.6552Z" fill="black"/>
<path d="M19.862 22.069H17.6552V24.2759H19.862V22.069Z" fill="black"/>
<path d="M19.862 28.6897H17.6552V30.8965H19.862V28.6897Z" fill="black"/>
<path d="M19.862 35.3103H17.6552V37.5172H19.862V35.3103Z" fill="black"/>
<path d="M19.862 39.7241H17.6552V41.931H19.862V39.7241Z" fill="black"/>
<path d="M19.862 44.1379H17.6552V46.3448H19.862V44.1379Z" fill="black"/>
<path d="M19.862 46.3448H17.6552V48.5517H19.862V46.3448Z" fill="black"/>
<path d="M19.862 48.5517H17.6552V50.7586H19.862V48.5517Z" fill="black"/>
<path d="M19.862 52.9655H17.6552V55.1724H19.862V52.9655Z" fill="black"/>
<path d="M22.069 8.82758H19.8621V11.0345H22.069V8.82758Z" fill="black"/>
<path d="M22.069 22.069H19.8621V24.2759H22.069V22.069Z" fill="black"/>
<path d="M22.069 35.3103H19.8621V37.5172H22.069V35.3103Z" fill="black"/>
<path d="M22.069 39.7241H19.8621V41.931H22.069V39.7241Z" fill="black"/>
<path d="M22.069 52.9655H19.8621V55.1724H22.069V52.9655Z" fill="black"/>
<path d="M24.2759 8.82758H22.069V11.0345H24.2759V8.82758Z" fill="black"/>
<path d="M24.2759 11.0345H22.069V13.2414H24.2759V11.0345Z" fill="black"/>
<path d="M24.2759 13.2414H22.069V15.4483H24.2759V13.2414Z" fill="black"/>
<path d="M24.2759 15.4483H22.069V17.6552H24.2759V15.4483Z" fill="black"/>
<path d="M24.2759 17.6552H22.069V19.8621H24.2759V17.6552Z" fill="black"/>
<path d="M24.2759 19.8621H22.069V22.069H24.2759V19.8621Z" fill="black"/>
<path d="M24.2759 22.069H22.069V24.2759H24.2759V22.069Z" fill="black"/>
<path d="M24.2759 26.4828H22.069V28.6897H24.2759V26.4828Z" fill="black"/>
<path d="M24.2759 30.8965H22.069V33.1034H24.2759V30.8965Z" fill="black"/>
<path d="M24.2759 35.3103H22.069V37.5172H24.2759V35.3103Z" fill="black"/>
<path d="M24.2759 39.7241H22.069V41.931H24.2759V39.7241Z" fill="black"/>
<path d="M24.2759 41.931H22.069V44.1379H24.2759V41.931Z" fill="black"/>
<path d="M24.2759 44.1379H22.069V46.3448H24.2759V44.1379Z" fill="black"/>
<path d="M24.2759 46.3448H22.069V48.5517H24.2759V46.3448Z" fill="black"/>
<path d="M24.2759 48.5517H22.069V50.7586H24.2759V48.5517Z" fill="black"/>
<path d="M24.2759 50.7586H22.069V52.9655H24.2759V50.7586Z" fill="black"/>
<path d="M24.2759 52.9655H22.069V55.1724H24.2759V52.9655Z" fill="black"/>
<path d="M28.6897 8.82758H26.4828V11.0345H28.6897V8.82758Z" fill="black"/>
<path d="M28.6897 13.2414H26.4828V15.4483H28.6897V13.2414Z" fill="black"/>
<path d="M28.6897 15.4483H26.4828V17.6552H28.6897V15.4483Z" fill="black"/>
<path d="M28.6897 17.6552H26.4828V19.8621H28.6897V17.6552Z" fill="black"/>
<path d="M28.6897 22.069H26.4828V24.2759H28.6897V22.069Z" fill="black"/>
<path d="M28.6897 26.4828H26.4828V28.6897H28.6897V26.4828Z" fill="black"/>
<path d="M28.6897 28.6897H26.4828V30.8965H28.6897V28.6897Z" fill="black"/>
<path d="M28.6897 33.1035H26.4828V35.3103H28.6897V33.1035Z" fill="black"/>
<path d="M28.6897 37.5172H26.4828V39.7241H28.6897V37.5172Z" fill="black"/>
<path d="M28.6897 46.3448H26.4828V48.5517H28.6897V46.3448Z" fill="black"/>
<path d="M28.6897 48.5517H26.4828V50.7586H28.6897V48.5517Z" fill="black"/>
<path d="M28.6897 50.7586H26.4828V52.9655H28.6897V50.7586Z" fill="black"/>
<path d="M28.6897 52.9655H26.4828V55.1724H28.6897V52.9655Z" fill="black"/>
<path d="M30.8965 13.2414H28.6896V15.4483H30.8965V13.2414Z" fill="black"/>
<path d="M30.8965 15.4483H28.6896V17.6552H30.8965V15.4483Z" fill="black"/>
<path d="M30.8965 19.8621H28.6896V22.069H30.8965V19.8621Z" fill="black"/>
<path d="M30.8965 26.4828H28.6896V28.6897H30.8965V26.4828Z" fill="black"/>
<path d="M30.8965 30.8965H28.6896V33.1034H30.8965V30.8965Z" fill="black"/>
<path d="M30.8965 35.3103H28.6896V37.5172H30.8965V35.3103Z" fill="black"/>
<path d="M30.8965 41.931H28.6896V44.1379H30.8965V41.931Z" fill="black"/>
<path d="M30.8965 44.1379H28.6896V46.3448H30.8965V44.1379Z" fill="black"/>
<path d="M33.1034 8.82758H30.8965V11.0345H33.1034V8.82758Z" fill="black"/>
<path d="M33.1034 11.0345H30.8965V13.2414H33.1034V11.0345Z" fill="black"/>
<path d="M33.1034 19.8621H30.8965V22.069H33.1034V19.8621Z" fill="black"/>
<path d="M33.1034 22.069H30.8965V24.2759H33.1034V22.069Z" fill="black"/>
<path d="M33.1034 26.4828H30.8965V28.6897H33.1034V26.4828Z" fill="black"/>
<path d="M33.1034 41.931H30.8965V44.1379H33.1034V41.931Z" fill="black"/>
<path d="M33.1034 48.5517H30.8965V50.7586H33.1034V48.5517Z" fill="black"/>
<path d="M33.1034 52.9655H30.8965V55.1724H33.1034V52.9655Z" fill="black"/>
<path d="M35.3103 8.82758H33.1035V11.0345H35.3103V8.82758Z" fill="black"/>
<path d="M35.3103 11.0345H33.1035V13.2414H35.3103V11.0345Z" fill="black"/>
<path d="M35.3103 13.2414H33.1035V15.4483H35.3103V13.2414Z" fill="black"/>
<path d="M35.3103 17.6552H33.1035V19.8621H35.3103V17.6552Z" fill="black"/>
<path d="M35.3103 19.8621H33.1035V22.069H35.3103V19.8621Z" fill="black"/>
<path d="M35.3103 24.2759H33.1035V26.4828H35.3103V24.2759Z" fill="black"/>
<path d="M35.3103 26.4828H33.1035V28.6897H35.3103V26.4828Z" fill="black"/>
<path d="M35.3103 30.8965H33.1035V33.1034H35.3103V30.8965Z" fill="black"/>
<path d="M35.3103 33.1035H33.1035V35.3103H35.3103V33.1035Z" fill="black"/>
<path d="M35.3103 35.3103H33.1035V37.5172H35.3103V35.3103Z" fill="black"/>
<path d="M35.3103 37.5172H33.1035V39.7241H35.3103V37.5172Z" fill="black"/>
<path d="M35.3103 39.7241H33.1035V41.931H35.3103V39.7241Z" fill="black"/>
<path d="M35.3103 46.3448H33.1035V48.5517H35.3103V46.3448Z" fill="black"/>
<path d="M35.3103 48.5517H33.1035V50.7586H35.3103V48.5517Z" fill="black"/>
<path d="M37.5172 8.82758H35.3103V11.0345H37.5172V8.82758Z" fill="black"/>
<path d="M37.5172 15.4483H35.3103V17.6552H37.5172V15.4483Z" fill="black"/>
<path d="M37.5172 19.8621H35.3103V22.069H37.5172V19.8621Z" fill="black"/>
<path d="M37.5172 22.069H35.3103V24.2759H37.5172V22.069Z" fill="black"/>
<path d="M37.5172 24.2759H35.3103V26.4828H37.5172V24.2759Z" fill="black"/>
<path d="M37.5172 26.4828H35.3103V28.6897H37.5172V26.4828Z" fill="black"/>
<path d="M37.5172 28.6897H35.3103V30.8965H37.5172V28.6897Z" fill="black"/>
<path d="M37.5172 35.3103H35.3103V37.5172H37.5172V35.3103Z" fill="black"/>
<path d="M37.5172 37.5172H35.3103V39.7241H37.5172V37.5172Z" fill="black"/>
<path d="M37.5172 41.931H35.3103V44.1379H37.5172V41.931Z" fill="black"/>
<path d="M37.5172 46.3448H35.3103V48.5517H37.5172V46.3448Z" fill="black"/>
<path d="M37.5172 48.5517H35.3103V50.7586H37.5172V48.5517Z" fill="black"/>
<path d="M39.7241 26.4828H37.5172V28.6897H39.7241V26.4828Z" fill="black"/>
<path d="M39.7241 28.6897H37.5172V30.8965H39.7241V28.6897Z" fill="black"/>
<path d="M39.7241 30.8965H37.5172V33.1034H39.7241V30.8965Z" fill="black"/>
<path d="M39.7241 39.7241H37.5172V41.931H39.7241V39.7241Z" fill="black"/>
<path d="M39.7241 41.931H37.5172V44.1379H39.7241V41.931Z" fill="black"/>
<path d="M39.7241 44.1379H37.5172V46.3448H39.7241V44.1379Z" fill="black"/>
<path d="M39.7241 46.3448H37.5172V48.5517H39.7241V46.3448Z" fill="black"/>
<path d="M39.7241 50.7586H37.5172V52.9655H39.7241V50.7586Z" fill="black"/>
<path d="M39.7241 52.9655H37.5172V55.1724H39.7241V52.9655Z" fill="black"/>
<path d="M41.931 8.82758H39.7241V11.0345H41.931V8.82758Z" fill="black"/>
<path d="M41.931 11.0345H39.7241V13.2414H41.931V11.0345Z" fill="black"/>
<path d="M41.931 13.2414H39.7241V15.4483H41.931V13.2414Z" fill="black"/>
<path d="M41.931 15.4483H39.7241V17.6552H41.931V15.4483Z" fill="black"/>
<path d="M41.931 17.6552H39.7241V19.8621H41.931V17.6552Z" fill="black"/>
<path d="M41.931 19.8621H39.7241V22.069H41.931V19.8621Z" fill="black"/>
<path d="M41.931 22.069H39.7241V24.2759H41.931V22.069Z" fill="black"/>
<path d="M41.931 30.8965H39.7241V33.1034H41.931V30.8965Z" fill="black"/>
<path d="M41.931 35.3103H39.7241V37.5172H41.931V35.3103Z" fill="black"/>
<path d="M41.931 37.5172H39.7241V39.7241H41.931V37.5172Z" fill="black"/>
<path d="M41.931 39.7241H39.7241V41.931H41.931V39.7241Z" fill="black"/>
<path d="M41.931 48.5517H39.7241V50.7586H41.931V48.5517Z" fill="black"/>
<path d="M41.931 50.7586H39.7241V52.9655H41.931V50.7586Z" fill="black"/>
<path d="M41.931 52.9655H39.7241V55.1724H41.931V52.9655Z" fill="black"/>
<path d="M44.1379 8.82758H41.931V11.0345H44.1379V8.82758Z" fill="black"/>
<path d="M44.1379 22.069H41.931V24.2759H44.1379V22.069Z" fill="black"/>
<path d="M44.1379 28.6897H41.931V30.8965H44.1379V28.6897Z" fill="black"/>
<path d="M44.1379 30.8965H41.931V33.1034H44.1379V30.8965Z" fill="black"/>
<path d="M44.1379 39.7241H41.931V41.931H44.1379V39.7241Z" fill="black"/>
<path d="M44.1379 44.1379H41.931V46.3448H44.1379V44.1379Z" fill="black"/>
<path d="M44.1379 50.7586H41.931V52.9655H44.1379V50.7586Z" fill="black"/>
<path d="M46.3448 8.82758H44.1379V11.0345H46.3448V8.82758Z" fill="black"/>
<path d="M46.3448 13.2414H44.1379V15.4483H46.3448V13.2414Z" fill="black"/>
<path d="M46.3448 15.4483H44.1379V17.6552H46.3448V15.4483Z" fill="black"/>
<path d="M46.3448 17.6552H44.1379V19.8621H46.3448V17.6552Z" fill="black"/>
<path d="M46.3448 22.069H44.1379V24.2759H46.3448V22.069Z" fill="black"/>
<path d="M46.3448 26.4828H44.1379V28.6897H46.3448V26.4828Z" fill="black"/>
<path d="M46.3448 28.6897H44.1379V30.8965H46.3448V28.6897Z" fill="black"/>
<path d="M46.3448 33.1035H44.1379V35.3103H46.3448V33.1035Z" fill="black"/>
<path d="M46.3448 35.3103H44.1379V37.5172H46.3448V35.3103Z" fill="black"/>
<path d="M46.3448 37.5172H44.1379V39.7241H46.3448V37.5172Z" fill="black"/>
<path d="M46.3448 39.7241H44.1379V41.931H46.3448V39.7241Z" fill="black"/>
<path d="M46.3448 50.7586H44.1379V52.9655H46.3448V50.7586Z" fill="black"/>
<path d="M46.3448 52.9655H44.1379V55.1724H46.3448V52.9655Z" fill="black"/>
<path d="M48.5517 8.82758H46.3448V11.0345H48.5517V8.82758Z" fill="black"/>
<path d="M48.5517 13.2414H46.3448V15.4483H48.5517V13.2414Z" fill="black"/>
<path d="M48.5517 15.4483H46.3448V17.6552H48.5517V15.4483Z" fill="black"/>
<path d="M48.5517 17.6552H46.3448V19.8621H48.5517V17.6552Z" fill="black"/>
<path d="M48.5517 22.069H46.3448V24.2759H48.5517V22.069Z" fill="black"/>
<path d="M48.5517 26.4828H46.3448V28.6897H48.5517V26.4828Z" fill="black"/>
<path d="M48.5517 33.1035H46.3448V35.3103H48.5517V33.1035Z" fill="black"/>
<path d="M48.5517 41.931H46.3448V44.1379H48.5517V41.931Z" fill="black"/>
<path d="M48.5517 44.1379H46.3448V46.3448H48.5517V44.1379Z" fill="black"/>
<path d="M48.5517 46.3448H46.3448V48.5517H48.5517V46.3448Z" fill="black"/>
<path d="M48.5517 48.5517H46.3448V50.7586H48.5517V48.5517Z" fill="black"/>
<path d="M50.7586 8.82758H48.5517V11.0345H50.7586V8.82758Z" fill="black"/>
<path d="M50.7586 13.2414H48.5517V15.4483H50.7586V13.2414Z" fill="black"/>
<path d="M50.7586 15.4483H48.5517V17.6552H50.7586V15.4483Z" fill="black"/>
<path d="M50.7586 17.6552H48.5517V19.8621H50.7586V17.6552Z" fill="black"/>
<path d="M50.7586 22.069H48.5517V24.2759H50.7586V22.069Z" fill="black"/>
<path d="M50.7586 26.4828H48.5517V28.6897H50.7586V26.4828Z" fill="black"/>
<path d="M50.7586 28.6897H48.5517V30.8965H50.7586V28.6897Z" fill="black"/>
<path d="M50.7586 39.7241H48.5517V41.931H50.7586V39.7241Z" fill="black"/>
<path d="M50.7586 41.931H48.5517V44.1379H50.7586V41.931Z" fill="black"/>
<path d="M50.7586 44.1379H48.5517V46.3448H50.7586V44.1379Z" fill="black"/>
<path d="M50.7586 48.5517H48.5517V50.7586H50.7586V48.5517Z" fill="black"/>
<path d="M50.7586 52.9655H48.5517V55.1724H50.7586V52.9655Z" fill="black"/>
<path d="M52.9655 8.82758H50.7586V11.0345H52.9655V8.82758Z" fill="black"/>
<path d="M52.9655 22.069H50.7586V24.2759H52.9655V22.069Z" fill="black"/>
<path d="M52.9655 30.8965H50.7586V33.1034H52.9655V30.8965Z" fill="black"/>
<path d="M52.9655 37.5172H50.7586V39.7241H52.9655V37.5172Z" fill="black"/>
<path d="M52.9655 41.931H50.7586V44.1379H52.9655V41.931Z" fill="black"/>
<path d="M52.9655 44.1379H50.7586V46.3448H52.9655V44.1379Z" fill="black"/>
<path d="M52.9655 46.3448H50.7586V48.5517H52.9655V46.3448Z" fill="black"/>
<path d="M55.1724 8.82758H52.9655V11.0345H55.1724V8.82758Z" fill="black"/>
<path d="M55.1724 11.0345H52.9655V13.2414H55.1724V11.0345Z" fill="black"/>
<path d="M55.1724 13.2414H52.9655V15.4483H55.1724V13.2414Z" fill="black"/>
<path d="M55.1724 15.4483H52.9655V17.6552H55.1724V15.4483Z" fill="black"/>
<path d="M55.1724 17.6552H52.9655V19.8621H55.1724V17.6552Z" fill="black"/>
<path d="M55.1724 19.8621H52.9655V22.069H55.1724V19.8621Z" fill="black"/>
<path d="M55.1724 22.069H52.9655V24.2759H55.1724V22.069Z" fill="black"/>
<path d="M55.1724 26.4828H52.9655V28.6897H55.1724V26.4828Z" fill="black"/>
<path d="M55.1724 28.6897H52.9655V30.8965H55.1724V28.6897Z" fill="black"/>
<path d="M55.1724 30.8965H52.9655V33.1034H55.1724V30.8965Z" fill="black"/>
<path d="M55.1724 33.1035H52.9655V35.3103H55.1724V33.1035Z" fill="black"/>
<path d="M55.1724 50.7586H52.9655V52.9655H55.1724V50.7586Z" fill="black"/>
<rect x="0.5" y="0.5" width="63" height="63" stroke="black"/>
</svg>
